solid OpenSCAD_Model
  facet normal 0 0 -1
    outer loop
      vertex 12.3631 3.90678 0
      vertex 9.72455 7.24601 0
      vertex 10.1782 8.03168 0
    endloop
  endfacet
  facet normal 0 0 -1
    outer loop
      vertex 12.3631 3.90678 0
      vertex 8.93889 6.79241 0
      vertex 9.72455 7.24601 0
    endloop
  endfacet
  facet normal 0 0 -1
    outer loop
      vertex 12.3631 3.90678 0
      vertex 8.03168 6.79241 0
      vertex 8.93889 6.79241 0
    endloop
  endfacet
  facet normal 0 0 -1
    outer loop
      vertex 2.83194 -3.49716 0
      vertex 8.03168 6.79241 0
      vertex 12.3631 3.90678 0
    endloop
  endfacet
  facet normal 0 0 -1
    outer loop
      vertex -3.49716 2.83194 0
      vertex 6.79241 8.03168 0
      vertex 7.24601 7.24601 0
    endloop
  endfacet
  facet normal -0 0 -1
    outer loop
      vertex 8.03168 6.79241 0
      vertex 2.83194 -3.49716 0
      vertex 7.24601 7.24601 0
    endloop
  endfacet
  facet normal 0 0 -1
    outer loop
      vertex -3.49716 2.83194 0
      vertex 7.24601 7.24601 0
      vertex 2.83194 -3.49716 0
    endloop
  endfacet
  facet normal 0 0 -1
    outer loop
      vertex -3.49716 2.83194 0
      vertex 2.83194 -3.49716 0
      vertex 1.16469 -4.34667 0
    endloop
  endfacet
  facet normal 0 0 -1
    outer loop
      vertex -3.49716 2.83194 0
      vertex 1.16469 -4.34667 0
      vertex -0.703956 -4.4446 0
    endloop
  endfacet
  facet normal 0 0 -1
    outer loop
      vertex -3.49716 2.83194 0
      vertex -0.703956 -4.4446 0
      vertex -2.45088 -3.77402 0
    endloop
  endfacet
  facet normal -0 0 -1
    outer loop
      vertex 6.79241 8.03168 0
      vertex -3.49716 2.83194 0
      vertex 3.90678 12.3631 0
    endloop
  endfacet
  facet normal 0 0 -1
    outer loop
      vertex -3.77402 -2.45088 0
      vertex -3.49716 2.83194 0
      vertex -2.45088 -3.77402 0
    endloop
  endfacet
  facet normal 0 0 -1
    outer loop
      vertex -3.77402 -2.45088 0
      vertex -4.34667 1.16469 0
      vertex -3.49716 2.83194 0
    endloop
  endfacet
  facet normal 0 -0 -1
    outer loop
      vertex -4.34667 1.16469 0
      vertex -3.77402 -2.45088 0
      vertex -4.4446 -0.703956 0
    endloop
  endfacet
  facet normal 0 0 -1
    outer loop
      vertex 253.003 244.518 0
      vertex 253.003 261.488 0
      vertex 261.488 253.003 0
    endloop
  endfacet
  facet normal 0 0 -1
    outer loop
      vertex 253.003 244.518 0
      vertex 244.518 253.003 0
      vertex 253.003 261.488 0
    endloop
  endfacet
  facet normal 0 0 -1
    outer loop
      vertex 244.16 242.921 0
      vertex 253.003 244.518 0
      vertex 244.16 242.013 0
    endloop
  endfacet
  facet normal 0 0 -1
    outer loop
      vertex 253.003 244.518 0
      vertex 243.706 241.228 0
      vertex 244.16 242.013 0
    endloop
  endfacet
  facet normal 0 0 -1
    outer loop
      vertex 253.003 244.518 0
      vertex 242.921 240.774 0
      vertex 243.706 241.228 0
    endloop
  endfacet
  facet normal 0 0 -1
    outer loop
      vertex 162.884 162.884 0
      vertex 241.228 241.228 0
      vertex 163.337 162.098 0
    endloop
  endfacet
  facet normal -0 0 -1
    outer loop
      vertex 242.013 240.774 0
      vertex 163.337 162.098 0
      vertex 241.228 241.228 0
    endloop
  endfacet
  facet normal 0 0 -1
    outer loop
      vertex 163.337 162.098 0
      vertex 242.013 240.774 0
      vertex 163.337 161.191 0
    endloop
  endfacet
  facet normal -0 0 -1
    outer loop
      vertex 242.921 240.774 0
      vertex 163.337 161.191 0
      vertex 242.013 240.774 0
    endloop
  endfacet
  facet normal 0 0 -1
    outer loop
      vertex 253.003 244.518 0
      vertex 163.337 161.191 0
      vertex 242.921 240.774 0
    endloop
  endfacet
  facet normal 0 0 -1
    outer loop
      vertex 253.003 244.518 0
      vertex 162.884 160.405 0
      vertex 163.337 161.191 0
    endloop
  endfacet
  facet normal 0 0 -1
    outer loop
      vertex 82.0616 82.0616 0
      vertex 160.405 160.405 0
      vertex 82.5152 81.2759 0
    endloop
  endfacet
  facet normal -0 0 -1
    outer loop
      vertex 161.191 159.952 0
      vertex 82.5152 81.2759 0
      vertex 160.405 160.405 0
    endloop
  endfacet
  facet normal 0 0 -1
    outer loop
      vertex 82.5152 81.2759 0
      vertex 161.191 159.952 0
      vertex 82.5152 80.3687 0
    endloop
  endfacet
  facet normal -0 0 -1
    outer loop
      vertex 162.098 159.952 0
      vertex 82.5152 80.3687 0
      vertex 161.191 159.952 0
    endloop
  endfacet
  facet normal 0 0 -1
    outer loop
      vertex 162.884 160.405 0
      vertex 82.5152 80.3687 0
      vertex 162.098 159.952 0
    endloop
  endfacet
  facet normal 0 0 -1
    outer loop
      vertex 82.0616 79.583 0
      vertex 162.884 160.405 0
      vertex 253.003 244.518 0
    endloop
  endfacet
  facet normal 0 0 -1
    outer loop
      vertex 162.884 160.405 0
      vertex 82.0616 79.583 0
      vertex 82.5152 80.3687 0
    endloop
  endfacet
  facet normal 0 0 -1
    outer loop
      vertex 9.72455 9.72455 0
      vertex 79.583 79.583 0
      vertex 10.1782 8.93889 0
    endloop
  endfacet
  facet normal -0 0 -1
    outer loop
      vertex 80.3687 79.1294 0
      vertex 10.1782 8.93889 0
      vertex 79.583 79.583 0
    endloop
  endfacet
  facet normal 0 0 -1
    outer loop
      vertex 10.1782 8.93889 0
      vertex 80.3687 79.1294 0
      vertex 12.3631 3.90678 0
    endloop
  endfacet
  facet normal -0 0 -1
    outer loop
      vertex 81.2759 79.1294 0
      vertex 12.3631 3.90678 0
      vertex 80.3687 79.1294 0
    endloop
  endfacet
  facet normal 0 0 -1
    outer loop
      vertex 82.0616 79.583 0
      vertex 12.3631 3.90678 0
      vertex 81.2759 79.1294 0
    endloop
  endfacet
  facet normal 0 0 -1
    outer loop
      vertex 12.3631 3.90678 0
      vertex 82.0616 79.583 0
      vertex 253.003 244.518 0
    endloop
  endfacet
  facet normal 0 0 -1
    outer loop
      vertex 243.706 243.706 0
      vertex 253.003 244.518 0
      vertex 244.16 242.921 0
    endloop
  endfacet
  facet normal -0 0 -1
    outer loop
      vertex 253.003 244.518 0
      vertex 243.706 243.706 0
      vertex 244.518 253.003 0
    endloop
  endfacet
  facet normal 0 0 -1
    outer loop
      vertex 242.921 244.16 0
      vertex 244.518 253.003 0
      vertex 243.706 243.706 0
    endloop
  endfacet
  facet normal 0 0 -1
    outer loop
      vertex 242.013 244.16 0
      vertex 244.518 253.003 0
      vertex 242.921 244.16 0
    endloop
  endfacet
  facet normal 0 0 -1
    outer loop
      vertex 241.228 243.706 0
      vertex 244.518 253.003 0
      vertex 242.013 244.16 0
    endloop
  endfacet
  facet normal 0 0 -1
    outer loop
      vertex 240.774 242.921 0
      vertex 244.518 253.003 0
      vertex 241.228 243.706 0
    endloop
  endfacet
  facet normal -0 0 -1
    outer loop
      vertex 241.228 241.228 0
      vertex 162.884 162.884 0
      vertex 240.774 242.013 0
    endloop
  endfacet
  facet normal 0 0 -1
    outer loop
      vertex 162.098 163.337 0
      vertex 240.774 242.013 0
      vertex 162.884 162.884 0
    endloop
  endfacet
  facet normal -0 0 -1
    outer loop
      vertex 240.774 242.013 0
      vertex 162.098 163.337 0
      vertex 240.774 242.921 0
    endloop
  endfacet
  facet normal 0 0 -1
    outer loop
      vertex 161.191 163.337 0
      vertex 240.774 242.921 0
      vertex 162.098 163.337 0
    endloop
  endfacet
  facet normal -0 0 -1
    outer loop
      vertex 240.774 242.921 0
      vertex 161.191 163.337 0
      vertex 244.518 253.003 0
    endloop
  endfacet
  facet normal 0 0 -1
    outer loop
      vertex 160.405 162.884 0
      vertex 244.518 253.003 0
      vertex 161.191 163.337 0
    endloop
  endfacet
  facet normal -0 0 -1
    outer loop
      vertex 160.405 160.405 0
      vertex 82.0616 82.0616 0
      vertex 159.952 161.191 0
    endloop
  endfacet
  facet normal 0 0 -1
    outer loop
      vertex 81.2759 82.5152 0
      vertex 159.952 161.191 0
      vertex 82.0616 82.0616 0
    endloop
  endfacet
  facet normal -0 0 -1
    outer loop
      vertex 159.952 161.191 0
      vertex 81.2759 82.5152 0
      vertex 159.952 162.098 0
    endloop
  endfacet
  facet normal 0 0 -1
    outer loop
      vertex 80.3687 82.5152 0
      vertex 159.952 162.098 0
      vertex 81.2759 82.5152 0
    endloop
  endfacet
  facet normal -0 0 -1
    outer loop
      vertex 159.952 162.098 0
      vertex 80.3687 82.5152 0
      vertex 160.405 162.884 0
    endloop
  endfacet
  facet normal 0 0 -1
    outer loop
      vertex 79.583 82.0616 0
      vertex 160.405 162.884 0
      vertex 80.3687 82.5152 0
    endloop
  endfacet
  facet normal -0 0 -1
    outer loop
      vertex 160.405 162.884 0
      vertex 79.583 82.0616 0
      vertex 244.518 253.003 0
    endloop
  endfacet
  facet normal -0 0 -1
    outer loop
      vertex 79.583 79.583 0
      vertex 9.72455 9.72455 0
      vertex 79.1294 80.3687 0
    endloop
  endfacet
  facet normal 0 0 -1
    outer loop
      vertex 10.1782 8.93889 0
      vertex 12.3631 3.90678 0
      vertex 10.1782 8.03168 0
    endloop
  endfacet
  facet normal 0 0 -1
    outer loop
      vertex 8.93889 10.1782 0
      vertex 79.1294 80.3687 0
      vertex 9.72455 9.72455 0
    endloop
  endfacet
  facet normal 0 0 -1
    outer loop
      vertex 3.90678 12.3631 0
      vertex 79.1294 80.3687 0
      vertex 8.93889 10.1782 0
    endloop
  endfacet
  facet normal -0 0 -1
    outer loop
      vertex 79.1294 80.3687 0
      vertex 3.90678 12.3631 0
      vertex 79.1294 81.2759 0
    endloop
  endfacet
  facet normal -0 0 -1
    outer loop
      vertex 79.1294 81.2759 0
      vertex 3.90678 12.3631 0
      vertex 79.583 82.0616 0
    endloop
  endfacet
  facet normal 0 0 -1
    outer loop
      vertex 3.90678 12.3631 0
      vertex 8.93889 10.1782 0
      vertex 8.03168 10.1782 0
    endloop
  endfacet
  facet normal 0 0 -1
    outer loop
      vertex 3.90678 12.3631 0
      vertex 8.03168 10.1782 0
      vertex 7.24601 9.72455 0
    endloop
  endfacet
  facet normal -0 0 -1
    outer loop
      vertex 79.583 82.0616 0
      vertex 3.90678 12.3631 0
      vertex 244.518 253.003 0
    endloop
  endfacet
  facet normal 0 0 -1
    outer loop
      vertex 6.79241 8.93889 0
      vertex 3.90678 12.3631 0
      vertex 7.24601 9.72455 0
    endloop
  endfacet
  facet normal 0 0 -1
    outer loop
      vertex 3.90678 12.3631 0
      vertex 6.79241 8.93889 0
      vertex 6.79241 8.03168 0
    endloop
  endfacet
  facet normal 0.0523351 -0.99863 0
    outer loop
      vertex -0.703956 -4.4446 0
      vertex 1.16469 -4.34667 5
      vertex -0.703956 -4.4446 5
    endloop
  endfacet
  facet normal 0.0523351 -0.99863 0
    outer loop
      vertex 1.16469 -4.34667 5
      vertex -0.703956 -4.4446 0
      vertex 1.16469 -4.34667 0
    endloop
  endfacet
  facet normal -0.707107 -0.707107 0
    outer loop
      vertex -2.45088 -3.77402 0
      vertex -3.77402 -2.45088 5
      vertex -3.77402 -2.45088 0
    endloop
  endfacet
  facet normal -0.707107 -0.707107 0
    outer loop
      vertex -3.77402 -2.45088 5
      vertex -2.45088 -3.77402 0
      vertex -2.45088 -3.77402 5
    endloop
  endfacet
  facet normal -0.358367 -0.933581 0
    outer loop
      vertex -2.45088 -3.77402 0
      vertex -0.703956 -4.4446 5
      vertex -2.45088 -3.77402 5
    endloop
  endfacet
  facet normal -0.358367 -0.933581 -0
    outer loop
      vertex -0.703956 -4.4446 5
      vertex -2.45088 -3.77402 0
      vertex -0.703956 -4.4446 0
    endloop
  endfacet
  facet normal 0.707107 -0.707107 0
    outer loop
      vertex 253.003 244.518 5
      vertex 261.488 253.003 0
      vertex 261.488 253.003 5
    endloop
  endfacet
  facet normal 0.707107 -0.707107 0
    outer loop
      vertex 261.488 253.003 0
      vertex 253.003 244.518 5
      vertex 253.003 244.518 0
    endloop
  endfacet
  facet normal -0.707149 0.707065 0
    outer loop
      vertex 3.90678 12.3631 0
      vertex 244.518 253.003 5
      vertex 244.518 253.003 0
    endloop
  endfacet
  facet normal -0.707149 0.707065 0
    outer loop
      vertex 244.518 253.003 5
      vertex 3.90678 12.3631 0
      vertex 3.90678 12.3631 5
    endloop
  endfacet
  facet normal -0.707107 0.707107 0
    outer loop
      vertex 244.518 253.003 0
      vertex 253.003 261.488 5
      vertex 253.003 261.488 0
    endloop
  endfacet
  facet normal -0.707107 0.707107 0
    outer loop
      vertex 253.003 261.488 5
      vertex 244.518 253.003 0
      vertex 244.518 253.003 5
    endloop
  endfacet
  facet normal 0.707107 0.707107 0
    outer loop
      vertex 261.488 253.003 5
      vertex 253.003 261.488 0
      vertex 253.003 261.488 5
    endloop
  endfacet
  facet normal 0.707107 0.707107 0
    outer loop
      vertex 253.003 261.488 0
      vertex 261.488 253.003 5
      vertex 261.488 253.003 0
    endloop
  endfacet
  facet normal -0.891006 0.453992 0
    outer loop
      vertex -4.34667 1.16469 0
      vertex -3.49716 2.83194 5
      vertex -3.49716 2.83194 0
    endloop
  endfacet
  facet normal -0.891006 0.453992 0
    outer loop
      vertex -3.49716 2.83194 5
      vertex -4.34667 1.16469 0
      vertex -4.34667 1.16469 5
    endloop
  endfacet
  facet normal -0.789721 0.613466 0
    outer loop
      vertex -3.49716 2.83194 0
      vertex 3.90678 12.3631 5
      vertex 3.90678 12.3631 0
    endloop
  endfacet
  facet normal -0.789721 0.613466 0
    outer loop
      vertex 3.90678 12.3631 5
      vertex -3.49716 2.83194 0
      vertex -3.49716 2.83194 5
    endloop
  endfacet
  facet normal -0.99863 0.0523351 0
    outer loop
      vertex -4.4446 -0.703956 0
      vertex -4.34667 1.16469 5
      vertex -4.34667 1.16469 0
    endloop
  endfacet
  facet normal -0.99863 0.0523351 0
    outer loop
      vertex -4.34667 1.16469 5
      vertex -4.4446 -0.703956 0
      vertex -4.4446 -0.703956 5
    endloop
  endfacet
  facet normal 0.707065 -0.707149 0
    outer loop
      vertex 12.3631 3.90678 0
      vertex 253.003 244.518 5
      vertex 12.3631 3.90678 5
    endloop
  endfacet
  facet normal 0.707065 -0.707149 0
    outer loop
      vertex 253.003 244.518 5
      vertex 12.3631 3.90678 0
      vertex 253.003 244.518 0
    endloop
  endfacet
  facet normal 0.453992 -0.891006 0
    outer loop
      vertex 1.16469 -4.34667 0
      vertex 2.83194 -3.49716 5
      vertex 1.16469 -4.34667 5
    endloop
  endfacet
  facet normal 0.453992 -0.891006 0
    outer loop
      vertex 2.83194 -3.49716 5
      vertex 1.16469 -4.34667 0
      vertex 2.83194 -3.49716 0
    endloop
  endfacet
  facet normal -0.933581 -0.358367 0
    outer loop
      vertex -3.77402 -2.45088 0
      vertex -4.4446 -0.703956 5
      vertex -4.4446 -0.703956 0
    endloop
  endfacet
  facet normal -0.933581 -0.358367 0
    outer loop
      vertex -4.4446 -0.703956 5
      vertex -3.77402 -2.45088 0
      vertex -3.77402 -2.45088 5
    endloop
  endfacet
  facet normal 0 0 1
    outer loop
      vertex 253.003 261.488 5
      vertex 253.003 244.518 5
      vertex 261.488 253.003 5
    endloop
  endfacet
  facet normal -0 0 1
    outer loop
      vertex 244.518 253.003 5
      vertex 253.003 244.518 5
      vertex 253.003 261.488 5
    endloop
  endfacet
  facet normal -0 -0 1
    outer loop
      vertex 245.002 245.002 5
      vertex 253.003 244.518 5
      vertex 244.518 253.003 5
    endloop
  endfacet
  facet normal 0 0 1
    outer loop
      vertex 253.003 244.518 5
      vertex 245.002 245.002 5
      vertex 245.93 243.395 5
    endloop
  endfacet
  facet normal 0 0 1
    outer loop
      vertex 244.518 253.003 5
      vertex 243.395 245.93 5
      vertex 245.002 245.002 5
    endloop
  endfacet
  facet normal 0 0 1
    outer loop
      vertex 244.518 253.003 5
      vertex 241.539 245.93 5
      vertex 243.395 245.93 5
    endloop
  endfacet
  facet normal 0 0 1
    outer loop
      vertex 244.518 253.003 5
      vertex 239.932 245.002 5
      vertex 241.539 245.93 5
    endloop
  endfacet
  facet normal 0 0 1
    outer loop
      vertex 159.109 164.18 5
      vertex 239.932 245.002 5
      vertex 244.518 253.003 5
    endloop
  endfacet
  facet normal 0 0 1
    outer loop
      vertex 162.573 165.108 5
      vertex 239.004 241.539 5
      vertex 239.004 243.395 5
    endloop
  endfacet
  facet normal 0 0 1
    outer loop
      vertex 239.932 245.002 5
      vertex 159.109 164.18 5
      vertex 239.004 243.395 5
    endloop
  endfacet
  facet normal 0 0 1
    outer loop
      vertex 239.004 241.539 5
      vertex 164.18 164.18 5
      vertex 165.108 162.573 5
    endloop
  endfacet
  facet normal 0 0 1
    outer loop
      vertex 239.004 241.539 5
      vertex 162.573 165.108 5
      vertex 164.18 164.18 5
    endloop
  endfacet
  facet normal 0 0 1
    outer loop
      vertex 239.004 243.395 5
      vertex 160.717 165.108 5
      vertex 162.573 165.108 5
    endloop
  endfacet
  facet normal 0 0 1
    outer loop
      vertex 239.004 243.395 5
      vertex 159.109 164.18 5
      vertex 160.717 165.108 5
    endloop
  endfacet
  facet normal 0 0 1
    outer loop
      vertex 81.7502 84.2854 5
      vertex 158.182 160.717 5
      vertex 158.182 162.573 5
    endloop
  endfacet
  facet normal 0 0 1
    outer loop
      vertex 79.8944 84.2854 5
      vertex 158.182 162.573 5
      vertex 159.109 164.18 5
    endloop
  endfacet
  facet normal 0 0 1
    outer loop
      vertex 158.182 160.717 5
      vertex 83.3574 83.3574 5
      vertex 84.2854 81.7502 5
    endloop
  endfacet
  facet normal 0 0 1
    outer loop
      vertex 158.182 160.717 5
      vertex 81.7502 84.2854 5
      vertex 83.3574 83.3574 5
    endloop
  endfacet
  facet normal 0 0 1
    outer loop
      vertex 78.2872 83.3574 5
      vertex 159.109 164.18 5
      vertex 244.518 253.003 5
    endloop
  endfacet
  facet normal 0 0 1
    outer loop
      vertex 158.182 162.573 5
      vertex 79.8944 84.2854 5
      vertex 81.7502 84.2854 5
    endloop
  endfacet
  facet normal 0 0 1
    outer loop
      vertex 159.109 164.18 5
      vertex 78.2872 83.3574 5
      vertex 79.8944 84.2854 5
    endloop
  endfacet
  facet normal 0 0 1
    outer loop
      vertex 3.90678 12.3631 5
      vertex 77.3592 79.8944 5
      vertex 77.3592 81.7502 5
    endloop
  endfacet
  facet normal 0 0 1
    outer loop
      vertex 3.90678 12.3631 5
      vertex 77.3592 81.7502 5
      vertex 78.2872 83.3574 5
    endloop
  endfacet
  facet normal 0 0 1
    outer loop
      vertex 77.3592 79.8944 5
      vertex 11.9483 9.4132 5
      vertex 12.3631 3.90678 5
    endloop
  endfacet
  facet normal 0 0 1
    outer loop
      vertex 77.3592 79.8944 5
      vertex 11.0204 11.0204 5
      vertex 11.9483 9.4132 5
    endloop
  endfacet
  facet normal 0 0 1
    outer loop
      vertex 77.3592 79.8944 5
      vertex 9.4132 11.9483 5
      vertex 11.0204 11.0204 5
    endloop
  endfacet
  facet normal 0 0 1
    outer loop
      vertex 77.3592 79.8944 5
      vertex 3.90678 12.3631 5
      vertex 9.4132 11.9483 5
    endloop
  endfacet
  facet normal 0 0 1
    outer loop
      vertex 3.90678 12.3631 5
      vertex 78.2872 83.3574 5
      vertex 244.518 253.003 5
    endloop
  endfacet
  facet normal 0 0 1
    outer loop
      vertex 9.4132 11.9483 5
      vertex 3.90678 12.3631 5
      vertex 7.55736 11.9483 5
    endloop
  endfacet
  facet normal 0 0 1
    outer loop
      vertex -3.49716 2.83194 5
      vertex 5.02222 9.4132 5
      vertex 3.90678 12.3631 5
    endloop
  endfacet
  facet normal 0 0 1
    outer loop
      vertex 5.95015 11.0204 5
      vertex 3.90678 12.3631 5
      vertex 5.02222 9.4132 5
    endloop
  endfacet
  facet normal 0 0 1
    outer loop
      vertex 7.55736 11.9483 5
      vertex 3.90678 12.3631 5
      vertex 5.95015 11.0204 5
    endloop
  endfacet
  facet normal 0 0 1
    outer loop
      vertex 245.93 241.539 5
      vertex 253.003 244.518 5
      vertex 245.93 243.395 5
    endloop
  endfacet
  facet normal 0 0 1
    outer loop
      vertex 245.002 239.932 5
      vertex 253.003 244.518 5
      vertex 245.93 241.539 5
    endloop
  endfacet
  facet normal 0 0 1
    outer loop
      vertex 164.18 159.109 5
      vertex 245.002 239.932 5
      vertex 243.395 239.004 5
    endloop
  endfacet
  facet normal 0 0 1
    outer loop
      vertex 165.108 162.573 5
      vertex 239.932 239.932 5
      vertex 239.004 241.539 5
    endloop
  endfacet
  facet normal 0 0 1
    outer loop
      vertex 165.108 162.573 5
      vertex 241.539 239.004 5
      vertex 239.932 239.932 5
    endloop
  endfacet
  facet normal 0 0 1
    outer loop
      vertex 165.108 162.573 5
      vertex 243.395 239.004 5
      vertex 241.539 239.004 5
    endloop
  endfacet
  facet normal 0 0 1
    outer loop
      vertex 165.108 160.717 5
      vertex 243.395 239.004 5
      vertex 165.108 162.573 5
    endloop
  endfacet
  facet normal 0 0 1
    outer loop
      vertex 164.18 159.109 5
      vertex 243.395 239.004 5
      vertex 165.108 160.717 5
    endloop
  endfacet
  facet normal -0 0 1
    outer loop
      vertex 245.002 239.932 5
      vertex 164.18 159.109 5
      vertex 253.003 244.518 5
    endloop
  endfacet
  facet normal 0 0 1
    outer loop
      vertex 84.2854 81.7502 5
      vertex 159.109 159.109 5
      vertex 158.182 160.717 5
    endloop
  endfacet
  facet normal 0 0 1
    outer loop
      vertex 84.2854 81.7502 5
      vertex 160.717 158.182 5
      vertex 159.109 159.109 5
    endloop
  endfacet
  facet normal 0 0 1
    outer loop
      vertex 84.2854 81.7502 5
      vertex 162.573 158.182 5
      vertex 160.717 158.182 5
    endloop
  endfacet
  facet normal 0 0 1
    outer loop
      vertex 84.2854 79.8944 5
      vertex 162.573 158.182 5
      vertex 84.2854 81.7502 5
    endloop
  endfacet
  facet normal -0 0 1
    outer loop
      vertex 162.573 158.182 5
      vertex 84.2854 79.8944 5
      vertex 164.18 159.109 5
    endloop
  endfacet
  facet normal 0 0 1
    outer loop
      vertex 83.3574 78.2872 5
      vertex 164.18 159.109 5
      vertex 84.2854 79.8944 5
    endloop
  endfacet
  facet normal -0 0 1
    outer loop
      vertex 164.18 159.109 5
      vertex 83.3574 78.2872 5
      vertex 253.003 244.518 5
    endloop
  endfacet
  facet normal -0 0 1
    outer loop
      vertex 83.3574 78.2872 5
      vertex 12.3631 3.90678 5
      vertex 253.003 244.518 5
    endloop
  endfacet
  facet normal -0 0 1
    outer loop
      vertex 81.7502 77.3592 5
      vertex 12.3631 3.90678 5
      vertex 83.3574 78.2872 5
    endloop
  endfacet
  facet normal -0 0 1
    outer loop
      vertex 79.8944 77.3592 5
      vertex 12.3631 3.90678 5
      vertex 81.7502 77.3592 5
    endloop
  endfacet
  facet normal 0 0 1
    outer loop
      vertex 78.2872 78.2872 5
      vertex 12.3631 3.90678 5
      vertex 79.8944 77.3592 5
    endloop
  endfacet
  facet normal 0 0 1
    outer loop
      vertex 12.3631 3.90678 5
      vertex 78.2872 78.2872 5
      vertex 77.3592 79.8944 5
    endloop
  endfacet
  facet normal -0 0 1
    outer loop
      vertex 11.9483 7.55736 5
      vertex 12.3631 3.90678 5
      vertex 11.9483 9.4132 5
    endloop
  endfacet
  facet normal -0 0 1
    outer loop
      vertex 11.0204 5.95015 5
      vertex 12.3631 3.90678 5
      vertex 11.9483 7.55736 5
    endloop
  endfacet
  facet normal -0 0 1
    outer loop
      vertex 9.4132 5.02222 5
      vertex 12.3631 3.90678 5
      vertex 11.0204 5.95015 5
    endloop
  endfacet
  facet normal 0 0 1
    outer loop
      vertex 2.83194 -3.49716 5
      vertex 9.4132 5.02222 5
      vertex 7.55736 5.02222 5
    endloop
  endfacet
  facet normal 0 0 1
    outer loop
      vertex 9.4132 5.02222 5
      vertex 2.83194 -3.49716 5
      vertex 12.3631 3.90678 5
    endloop
  endfacet
  facet normal 0 0 1
    outer loop
      vertex 5.95015 5.95015 5
      vertex 2.83194 -3.49716 5
      vertex 7.55736 5.02222 5
    endloop
  endfacet
  facet normal 0 0 1
    outer loop
      vertex -3.49716 2.83194 5
      vertex 5.95015 5.95015 5
      vertex 5.02222 7.55736 5
    endloop
  endfacet
  facet normal 0 0 1
    outer loop
      vertex 5.02222 9.4132 5
      vertex -3.49716 2.83194 5
      vertex 5.02222 7.55736 5
    endloop
  endfacet
  facet normal 0 0 1
    outer loop
      vertex 5.95015 5.95015 5
      vertex -3.49716 2.83194 5
      vertex 2.83194 -3.49716 5
    endloop
  endfacet
  facet normal 0 0 1
    outer loop
      vertex 2.83194 -3.49716 5
      vertex -3.49716 2.83194 5
      vertex 1.16469 -4.34667 5
    endloop
  endfacet
  facet normal 0 0 1
    outer loop
      vertex 1.16469 -4.34667 5
      vertex -3.49716 2.83194 5
      vertex -0.703956 -4.4446 5
    endloop
  endfacet
  facet normal 0 0 1
    outer loop
      vertex -0.703956 -4.4446 5
      vertex -3.49716 2.83194 5
      vertex -2.45088 -3.77402 5
    endloop
  endfacet
  facet normal 0 0 1
    outer loop
      vertex -3.49716 2.83194 5
      vertex -3.77402 -2.45088 5
      vertex -2.45088 -3.77402 5
    endloop
  endfacet
  facet normal -0 0 1
    outer loop
      vertex -4.34667 1.16469 5
      vertex -3.77402 -2.45088 5
      vertex -3.49716 2.83194 5
    endloop
  endfacet
  facet normal 0 0 1
    outer loop
      vertex -3.77402 -2.45088 5
      vertex -4.34667 1.16469 5
      vertex -4.4446 -0.703956 5
    endloop
  endfacet
  facet normal 0.613466 -0.789721 0
    outer loop
      vertex 2.83194 -3.49716 0
      vertex 12.3631 3.90678 5
      vertex 2.83194 -3.49716 5
    endloop
  endfacet
  facet normal 0.613466 -0.789721 0
    outer loop
      vertex 12.3631 3.90678 5
      vertex 2.83194 -3.49716 0
      vertex 12.3631 3.90678 0
    endloop
  endfacet
  facet normal 0.663226 0.382916 0.643045
    outer loop
      vertex 5.02222 7.55736 4.60818
      vertex 5.95015 5.95015 4.60818
      vertex 7.24601 7.24601 2.5
    endloop
  endfacet
  facet normal 0.663227 0.382909 0.643048
    outer loop
      vertex 6.79241 8.03168 2.5
      vertex 5.02222 7.55736 4.60818
      vertex 7.24601 7.24601 2.5
    endloop
  endfacet
  facet normal 0.866024 0.500003 0
    outer loop
      vertex 5.95015 5.95015 5
      vertex 5.02222 7.55736 4.60818
      vertex 5.02222 7.55736 5
    endloop
  endfacet
  facet normal 0.866024 0.500003 0
    outer loop
      vertex 5.02222 7.55736 4.60818
      vertex 5.95015 5.95015 5
      vertex 5.95015 5.95015 4.60818
    endloop
  endfacet
  facet normal 0.866029 0.499994 0
    outer loop
      vertex 7.24601 7.24601 2.5
      vertex 6.79241 8.03168 0
      vertex 6.79241 8.03168 2.5
    endloop
  endfacet
  facet normal 0.866029 0.499994 0
    outer loop
      vertex 6.79241 8.03168 0
      vertex 7.24601 7.24601 2.5
      vertex 7.24601 7.24601 0
    endloop
  endfacet
  facet normal 0.765827 0 0.643047
    outer loop
      vertex 5.02222 9.4132 4.60818
      vertex 5.02222 7.55736 4.60818
      vertex 6.79241 8.03168 2.5
    endloop
  endfacet
  facet normal 0.765827 0 0.643047
    outer loop
      vertex 6.79241 8.93889 2.5
      vertex 5.02222 9.4132 4.60818
      vertex 6.79241 8.03168 2.5
    endloop
  endfacet
  facet normal 1 -0 0
    outer loop
      vertex 5.02222 7.55736 5
      vertex 5.02222 9.4132 4.60818
      vertex 5.02222 9.4132 5
    endloop
  endfacet
  facet normal 1 0 0
    outer loop
      vertex 5.02222 9.4132 4.60818
      vertex 5.02222 7.55736 5
      vertex 5.02222 7.55736 4.60818
    endloop
  endfacet
  facet normal 1 -0 0
    outer loop
      vertex 6.79241 8.03168 2.5
      vertex 6.79241 8.93889 0
      vertex 6.79241 8.93889 2.5
    endloop
  endfacet
  facet normal 1 0 0
    outer loop
      vertex 6.79241 8.93889 0
      vertex 6.79241 8.03168 2.5
      vertex 6.79241 8.03168 0
    endloop
  endfacet
  facet normal 0.663224 -0.382918 0.643045
    outer loop
      vertex 5.95015 11.0204 4.60818
      vertex 5.02222 9.4132 4.60818
      vertex 6.79241 8.93889 2.5
    endloop
  endfacet
  facet normal 0.663229 -0.382914 0.643043
    outer loop
      vertex 5.95015 11.0204 4.60818
      vertex 6.79241 8.93889 2.5
      vertex 7.24601 9.72455 2.5
    endloop
  endfacet
  facet normal 0.866022 -0.500005 0
    outer loop
      vertex 5.02222 9.4132 5
      vertex 5.95015 11.0204 4.60818
      vertex 5.95015 11.0204 5
    endloop
  endfacet
  facet normal 0.866022 -0.500005 0
    outer loop
      vertex 5.95015 11.0204 4.60818
      vertex 5.02222 9.4132 5
      vertex 5.02222 9.4132 4.60818
    endloop
  endfacet
  facet normal 0.866026 -0.499999 0
    outer loop
      vertex 6.79241 8.93889 2.5
      vertex 7.24601 9.72455 0
      vertex 7.24601 9.72455 2.5
    endloop
  endfacet
  facet normal 0.866026 -0.499999 0
    outer loop
      vertex 7.24601 9.72455 0
      vertex 6.79241 8.93889 2.5
      vertex 6.79241 8.93889 0
    endloop
  endfacet
  facet normal 0.382909 -0.663234 0.643041
    outer loop
      vertex 5.95015 11.0204 4.60818
      vertex 7.24601 9.72455 2.5
      vertex 7.55736 11.9483 4.60818
    endloop
  endfacet
  facet normal 0.382949 -0.663225 0.643026
    outer loop
      vertex 7.55736 11.9483 4.60818
      vertex 7.24601 9.72455 2.5
      vertex 8.03168 10.1782 2.5
    endloop
  endfacet
  facet normal 0.499991 -0.866031 0
    outer loop
      vertex 5.95015 11.0204 4.60818
      vertex 7.55736 11.9483 5
      vertex 5.95015 11.0204 5
    endloop
  endfacet
  facet normal 0.499991 -0.866031 0
    outer loop
      vertex 7.55736 11.9483 5
      vertex 5.95015 11.0204 4.60818
      vertex 7.55736 11.9483 4.60818
    endloop
  endfacet
  facet normal 0.500036 -0.866005 0
    outer loop
      vertex 7.24601 9.72455 0
      vertex 8.03168 10.1782 2.5
      vertex 7.24601 9.72455 2.5
    endloop
  endfacet
  facet normal 0.500036 -0.866005 0
    outer loop
      vertex 8.03168 10.1782 2.5
      vertex 7.24601 9.72455 0
      vertex 8.03168 10.1782 0
    endloop
  endfacet
  facet normal 0 -0.765843 0.643028
    outer loop
      vertex 8.03168 10.1782 2.5
      vertex 9.4132 11.9483 4.60818
      vertex 7.55736 11.9483 4.60818
    endloop
  endfacet
  facet normal 0 -0.765843 0.643028
    outer loop
      vertex 9.4132 11.9483 4.60818
      vertex 8.03168 10.1782 2.5
      vertex 8.93889 10.1782 2.5
    endloop
  endfacet
  facet normal 0 -1 0
    outer loop
      vertex 7.55736 11.9483 4.60818
      vertex 9.4132 11.9483 5
      vertex 7.55736 11.9483 5
    endloop
  endfacet
  facet normal 0 -1 -0
    outer loop
      vertex 9.4132 11.9483 5
      vertex 7.55736 11.9483 4.60818
      vertex 9.4132 11.9483 4.60818
    endloop
  endfacet
  facet normal 0 -1 0
    outer loop
      vertex 8.03168 10.1782 0
      vertex 8.93889 10.1782 2.5
      vertex 8.03168 10.1782 2.5
    endloop
  endfacet
  facet normal 0 -1 -0
    outer loop
      vertex 8.93889 10.1782 2.5
      vertex 8.03168 10.1782 0
      vertex 8.93889 10.1782 0
    endloop
  endfacet
  facet normal -0.382915 -0.663241 0.64303
    outer loop
      vertex 9.4132 11.9483 4.60818
      vertex 8.93889 10.1782 2.5
      vertex 11.0204 11.0204 4.60818
    endloop
  endfacet
  facet normal -0.382945 -0.663208 0.643046
    outer loop
      vertex 11.0204 11.0204 4.60818
      vertex 8.93889 10.1782 2.5
      vertex 9.72455 9.72455 2.5
    endloop
  endfacet
  facet normal -0.499993 -0.866029 0
    outer loop
      vertex 9.4132 11.9483 4.60818
      vertex 11.0204 11.0204 5
      vertex 9.4132 11.9483 5
    endloop
  endfacet
  facet normal -0.499993 -0.866029 -0
    outer loop
      vertex 11.0204 11.0204 5
      vertex 9.4132 11.9483 4.60818
      vertex 11.0204 11.0204 4.60818
    endloop
  endfacet
  facet normal -0.50004 -0.866002 0
    outer loop
      vertex 8.93889 10.1782 0
      vertex 9.72455 9.72455 2.5
      vertex 8.93889 10.1782 2.5
    endloop
  endfacet
  facet normal -0.50004 -0.866002 -0
    outer loop
      vertex 9.72455 9.72455 2.5
      vertex 8.93889 10.1782 0
      vertex 9.72455 9.72455 0
    endloop
  endfacet
  facet normal -0.663233 -0.382911 0.643041
    outer loop
      vertex 11.0204 11.0204 4.60818
      vertex 9.72455 9.72455 2.5
      vertex 11.9483 9.4132 4.60818
    endloop
  endfacet
  facet normal -0.663224 -0.382954 0.643024
    outer loop
      vertex 9.72455 9.72455 2.5
      vertex 10.1782 8.93889 2.5
      vertex 11.9483 9.4132 4.60818
    endloop
  endfacet
  facet normal -0.866029 -0.499993 0
    outer loop
      vertex 11.9483 9.4132 4.60818
      vertex 11.0204 11.0204 5
      vertex 11.0204 11.0204 4.60818
    endloop
  endfacet
  facet normal -0.866029 -0.499993 0
    outer loop
      vertex 11.0204 11.0204 5
      vertex 11.9483 9.4132 4.60818
      vertex 11.9483 9.4132 5
    endloop
  endfacet
  facet normal -0.866002 -0.50004 0
    outer loop
      vertex 10.1782 8.93889 0
      vertex 9.72455 9.72455 2.5
      vertex 9.72455 9.72455 0
    endloop
  endfacet
  facet normal -0.866002 -0.50004 0
    outer loop
      vertex 9.72455 9.72455 2.5
      vertex 10.1782 8.93889 0
      vertex 10.1782 8.93889 2.5
    endloop
  endfacet
  facet normal -0.765843 0 0.643028
    outer loop
      vertex 10.1782 8.03168 2.5
      vertex 11.9483 9.4132 4.60818
      vertex 10.1782 8.93889 2.5
    endloop
  endfacet
  facet normal -0.765843 0 0.643028
    outer loop
      vertex 11.9483 9.4132 4.60818
      vertex 10.1782 8.03168 2.5
      vertex 11.9483 7.55736 4.60818
    endloop
  endfacet
  facet normal -1 0 0
    outer loop
      vertex 11.9483 7.55736 4.60818
      vertex 11.9483 9.4132 5
      vertex 11.9483 9.4132 4.60818
    endloop
  endfacet
  facet normal -1 -0 0
    outer loop
      vertex 11.9483 9.4132 5
      vertex 11.9483 7.55736 4.60818
      vertex 11.9483 7.55736 5
    endloop
  endfacet
  facet normal -1 0 0
    outer loop
      vertex 10.1782 8.03168 0
      vertex 10.1782 8.93889 2.5
      vertex 10.1782 8.93889 0
    endloop
  endfacet
  facet normal -1 -0 0
    outer loop
      vertex 10.1782 8.93889 2.5
      vertex 10.1782 8.03168 0
      vertex 10.1782 8.03168 2.5
    endloop
  endfacet
  facet normal -0.663241 0.382913 0.643031
    outer loop
      vertex 10.1782 8.03168 2.5
      vertex 11.0204 5.95015 4.60818
      vertex 11.9483 7.55736 4.60818
    endloop
  endfacet
  facet normal -0.66321 0.382941 0.643047
    outer loop
      vertex 9.72455 7.24601 2.5
      vertex 11.0204 5.95015 4.60818
      vertex 10.1782 8.03168 2.5
    endloop
  endfacet
  facet normal -0.866031 0.499991 0
    outer loop
      vertex 11.0204 5.95015 4.60818
      vertex 11.9483 7.55736 5
      vertex 11.9483 7.55736 4.60818
    endloop
  endfacet
  facet normal -0.866031 0.499991 0
    outer loop
      vertex 11.9483 7.55736 5
      vertex 11.0204 5.95015 4.60818
      vertex 11.0204 5.95015 5
    endloop
  endfacet
  facet normal -0.866005 0.500036 0
    outer loop
      vertex 9.72455 7.24601 0
      vertex 10.1782 8.03168 2.5
      vertex 10.1782 8.03168 0
    endloop
  endfacet
  facet normal -0.866005 0.500036 0
    outer loop
      vertex 10.1782 8.03168 2.5
      vertex 9.72455 7.24601 0
      vertex 9.72455 7.24601 2.5
    endloop
  endfacet
  facet normal -0.382919 0.663225 0.643044
    outer loop
      vertex 9.72455 7.24601 2.5
      vertex 9.4132 5.02222 4.60818
      vertex 11.0204 5.95015 4.60818
    endloop
  endfacet
  facet normal -0.382913 0.663227 0.643046
    outer loop
      vertex 8.93889 6.79241 2.5
      vertex 9.4132 5.02222 4.60818
      vertex 9.72455 7.24601 2.5
    endloop
  endfacet
  facet normal -0.500005 0.866022 0
    outer loop
      vertex 11.0204 5.95015 4.60818
      vertex 9.4132 5.02222 5
      vertex 11.0204 5.95015 5
    endloop
  endfacet
  facet normal -0.500005 0.866022 0
    outer loop
      vertex 9.4132 5.02222 5
      vertex 11.0204 5.95015 4.60818
      vertex 9.4132 5.02222 4.60818
    endloop
  endfacet
  facet normal -0.499999 0.866026 0
    outer loop
      vertex 9.72455 7.24601 0
      vertex 8.93889 6.79241 2.5
      vertex 9.72455 7.24601 2.5
    endloop
  endfacet
  facet normal -0.499999 0.866026 0
    outer loop
      vertex 8.93889 6.79241 2.5
      vertex 9.72455 7.24601 0
      vertex 8.93889 6.79241 0
    endloop
  endfacet
  facet normal 0 0.765827 0.643047
    outer loop
      vertex 8.93889 6.79241 2.5
      vertex 7.55736 5.02222 4.60818
      vertex 9.4132 5.02222 4.60818
    endloop
  endfacet
  facet normal -0 0.765827 0.643047
    outer loop
      vertex 8.03168 6.79241 2.5
      vertex 7.55736 5.02222 4.60818
      vertex 8.93889 6.79241 2.5
    endloop
  endfacet
  facet normal 0 1 -0
    outer loop
      vertex 9.4132 5.02222 4.60818
      vertex 7.55736 5.02222 5
      vertex 9.4132 5.02222 5
    endloop
  endfacet
  facet normal 0 1 0
    outer loop
      vertex 7.55736 5.02222 5
      vertex 9.4132 5.02222 4.60818
      vertex 7.55736 5.02222 4.60818
    endloop
  endfacet
  facet normal 0 1 -0
    outer loop
      vertex 8.93889 6.79241 0
      vertex 8.03168 6.79241 2.5
      vertex 8.93889 6.79241 2.5
    endloop
  endfacet
  facet normal 0 1 0
    outer loop
      vertex 8.03168 6.79241 2.5
      vertex 8.93889 6.79241 0
      vertex 8.03168 6.79241 0
    endloop
  endfacet
  facet normal 0.382916 0.663224 0.643047
    outer loop
      vertex 8.03168 6.79241 2.5
      vertex 5.95015 5.95015 4.60818
      vertex 7.55736 5.02222 4.60818
    endloop
  endfacet
  facet normal 0.38291 0.66323 0.643044
    outer loop
      vertex 7.24601 7.24601 2.5
      vertex 5.95015 5.95015 4.60818
      vertex 8.03168 6.79241 2.5
    endloop
  endfacet
  facet normal 0.500003 0.866024 -0
    outer loop
      vertex 7.55736 5.02222 4.60818
      vertex 5.95015 5.95015 5
      vertex 7.55736 5.02222 5
    endloop
  endfacet
  facet normal 0.500003 0.866024 0
    outer loop
      vertex 5.95015 5.95015 5
      vertex 7.55736 5.02222 4.60818
      vertex 5.95015 5.95015 4.60818
    endloop
  endfacet
  facet normal 0.499994 0.866029 -0
    outer loop
      vertex 8.03168 6.79241 0
      vertex 7.24601 7.24601 2.5
      vertex 8.03168 6.79241 2.5
    endloop
  endfacet
  facet normal 0.499994 0.866029 0
    outer loop
      vertex 7.24601 7.24601 2.5
      vertex 8.03168 6.79241 0
      vertex 7.24601 7.24601 0
    endloop
  endfacet
  facet normal 0.663222 0.382946 0.643031
    outer loop
      vertex 77.3592 79.8944 4.60818
      vertex 78.2872 78.2872 4.60818
      vertex 79.583 79.583 2.5
    endloop
  endfacet
  facet normal 0.663233 0.382897 0.643049
    outer loop
      vertex 79.1294 80.3687 2.5
      vertex 77.3592 79.8944 4.60818
      vertex 79.583 79.583 2.5
    endloop
  endfacet
  facet normal 0.866006 0.500033 0
    outer loop
      vertex 78.2872 78.2872 5
      vertex 77.3592 79.8944 4.60818
      vertex 77.3592 79.8944 5
    endloop
  endfacet
  facet normal 0.866006 0.500033 0
    outer loop
      vertex 77.3592 79.8944 4.60818
      vertex 78.2872 78.2872 5
      vertex 78.2872 78.2872 4.60818
    endloop
  endfacet
  facet normal 0.866037 0.49998 0
    outer loop
      vertex 79.583 79.583 2.5
      vertex 79.1294 80.3687 0
      vertex 79.1294 80.3687 2.5
    endloop
  endfacet
  facet normal 0.866037 0.49998 0
    outer loop
      vertex 79.1294 80.3687 0
      vertex 79.583 79.583 2.5
      vertex 79.583 79.583 0
    endloop
  endfacet
  facet normal 0.765825 0 0.643049
    outer loop
      vertex 77.3592 81.7502 4.60818
      vertex 79.1294 80.3687 2.5
      vertex 79.1294 81.2759 2.5
    endloop
  endfacet
  facet normal 0.765825 0 0.643049
    outer loop
      vertex 79.1294 80.3687 2.5
      vertex 77.3592 81.7502 4.60818
      vertex 77.3592 79.8944 4.60818
    endloop
  endfacet
  facet normal 1 -0 0
    outer loop
      vertex 77.3592 79.8944 5
      vertex 77.3592 81.7502 4.60818
      vertex 77.3592 81.7502 5
    endloop
  endfacet
  facet normal 1 0 0
    outer loop
      vertex 77.3592 81.7502 4.60818
      vertex 77.3592 79.8944 5
      vertex 77.3592 79.8944 4.60818
    endloop
  endfacet
  facet normal 1 -0 0
    outer loop
      vertex 79.1294 80.3687 2.5
      vertex 79.1294 81.2759 0
      vertex 79.1294 81.2759 2.5
    endloop
  endfacet
  facet normal 1 0 0
    outer loop
      vertex 79.1294 81.2759 0
      vertex 79.1294 80.3687 2.5
      vertex 79.1294 80.3687 0
    endloop
  endfacet
  facet normal 0.663214 -0.382941 0.643043
    outer loop
      vertex 78.2872 83.3574 4.60818
      vertex 77.3592 81.7502 4.60818
      vertex 79.1294 81.2759 2.5
    endloop
  endfacet
  facet normal 0.663251 -0.382908 0.643025
    outer loop
      vertex 78.2872 83.3574 4.60818
      vertex 79.1294 81.2759 2.5
      vertex 79.583 82.0616 2.5
    endloop
  endfacet
  facet normal 0.866006 -0.500033 0
    outer loop
      vertex 77.3592 81.7502 5
      vertex 78.2872 83.3574 4.60818
      vertex 78.2872 83.3574 5
    endloop
  endfacet
  facet normal 0.866006 -0.500033 0
    outer loop
      vertex 78.2872 83.3574 4.60818
      vertex 77.3592 81.7502 5
      vertex 77.3592 81.7502 4.60818
    endloop
  endfacet
  facet normal 0.866037 -0.49998 0
    outer loop
      vertex 79.1294 81.2759 2.5
      vertex 79.583 82.0616 0
      vertex 79.583 82.0616 2.5
    endloop
  endfacet
  facet normal 0.866037 -0.49998 0
    outer loop
      vertex 79.583 82.0616 0
      vertex 79.1294 81.2759 2.5
      vertex 79.1294 81.2759 0
    endloop
  endfacet
  facet normal 0.382946 -0.663222 0.643031
    outer loop
      vertex 78.2872 83.3574 4.60818
      vertex 79.583 82.0616 2.5
      vertex 79.8944 84.2854 4.60818
    endloop
  endfacet
  facet normal 0.382897 -0.663233 0.643049
    outer loop
      vertex 79.8944 84.2854 4.60818
      vertex 79.583 82.0616 2.5
      vertex 80.3687 82.5152 2.5
    endloop
  endfacet
  facet normal 0.500033 -0.866006 0
    outer loop
      vertex 78.2872 83.3574 4.60818
      vertex 79.8944 84.2854 5
      vertex 78.2872 83.3574 5
    endloop
  endfacet
  facet normal 0.500033 -0.866006 0
    outer loop
      vertex 79.8944 84.2854 5
      vertex 78.2872 83.3574 4.60818
      vertex 79.8944 84.2854 4.60818
    endloop
  endfacet
  facet normal 0.49998 -0.866037 0
    outer loop
      vertex 79.583 82.0616 0
      vertex 80.3687 82.5152 2.5
      vertex 79.583 82.0616 2.5
    endloop
  endfacet
  facet normal 0.49998 -0.866037 0
    outer loop
      vertex 80.3687 82.5152 2.5
      vertex 79.583 82.0616 0
      vertex 80.3687 82.5152 0
    endloop
  endfacet
  facet normal 0 -0.765825 0.643049
    outer loop
      vertex 80.3687 82.5152 2.5
      vertex 81.7502 84.2854 4.60818
      vertex 79.8944 84.2854 4.60818
    endloop
  endfacet
  facet normal 0 -0.765825 0.643049
    outer loop
      vertex 81.7502 84.2854 4.60818
      vertex 80.3687 82.5152 2.5
      vertex 81.2759 82.5152 2.5
    endloop
  endfacet
  facet normal 0 -1 0
    outer loop
      vertex 79.8944 84.2854 4.60818
      vertex 81.7502 84.2854 5
      vertex 79.8944 84.2854 5
    endloop
  endfacet
  facet normal 0 -1 -0
    outer loop
      vertex 81.7502 84.2854 5
      vertex 79.8944 84.2854 4.60818
      vertex 81.7502 84.2854 4.60818
    endloop
  endfacet
  facet normal 0 -1 0
    outer loop
      vertex 80.3687 82.5152 0
      vertex 81.2759 82.5152 2.5
      vertex 80.3687 82.5152 2.5
    endloop
  endfacet
  facet normal 0 -1 -0
    outer loop
      vertex 81.2759 82.5152 2.5
      vertex 80.3687 82.5152 0
      vertex 81.2759 82.5152 0
    endloop
  endfacet
  facet normal -0.382941 -0.663214 0.643043
    outer loop
      vertex 81.7502 84.2854 4.60818
      vertex 81.2759 82.5152 2.5
      vertex 83.3574 83.3574 4.60818
    endloop
  endfacet
  facet normal -0.382908 -0.663251 0.643025
    outer loop
      vertex 83.3574 83.3574 4.60818
      vertex 81.2759 82.5152 2.5
      vertex 82.0616 82.0616 2.5
    endloop
  endfacet
  facet normal -0.500033 -0.866006 0
    outer loop
      vertex 81.7502 84.2854 4.60818
      vertex 83.3574 83.3574 5
      vertex 81.7502 84.2854 5
    endloop
  endfacet
  facet normal -0.500033 -0.866006 -0
    outer loop
      vertex 83.3574 83.3574 5
      vertex 81.7502 84.2854 4.60818
      vertex 83.3574 83.3574 4.60818
    endloop
  endfacet
  facet normal -0.49998 -0.866037 0
    outer loop
      vertex 81.2759 82.5152 0
      vertex 82.0616 82.0616 2.5
      vertex 81.2759 82.5152 2.5
    endloop
  endfacet
  facet normal -0.49998 -0.866037 -0
    outer loop
      vertex 82.0616 82.0616 2.5
      vertex 81.2759 82.5152 0
      vertex 82.0616 82.0616 0
    endloop
  endfacet
  facet normal -0.663222 -0.382946 0.643031
    outer loop
      vertex 83.3574 83.3574 4.60818
      vertex 82.0616 82.0616 2.5
      vertex 84.2854 81.7502 4.60818
    endloop
  endfacet
  facet normal -0.663233 -0.382897 0.643049
    outer loop
      vertex 82.0616 82.0616 2.5
      vertex 82.5152 81.2759 2.5
      vertex 84.2854 81.7502 4.60818
    endloop
  endfacet
  facet normal -0.866006 -0.500033 0
    outer loop
      vertex 84.2854 81.7502 4.60818
      vertex 83.3574 83.3574 5
      vertex 83.3574 83.3574 4.60818
    endloop
  endfacet
  facet normal -0.866006 -0.500033 0
    outer loop
      vertex 83.3574 83.3574 5
      vertex 84.2854 81.7502 4.60818
      vertex 84.2854 81.7502 5
    endloop
  endfacet
  facet normal -0.866037 -0.49998 0
    outer loop
      vertex 82.5152 81.2759 0
      vertex 82.0616 82.0616 2.5
      vertex 82.0616 82.0616 0
    endloop
  endfacet
  facet normal -0.866037 -0.49998 0
    outer loop
      vertex 82.0616 82.0616 2.5
      vertex 82.5152 81.2759 0
      vertex 82.5152 81.2759 2.5
    endloop
  endfacet
  facet normal -0.765825 0 0.643049
    outer loop
      vertex 82.5152 80.3687 2.5
      vertex 84.2854 81.7502 4.60818
      vertex 82.5152 81.2759 2.5
    endloop
  endfacet
  facet normal -0.765825 0 0.643049
    outer loop
      vertex 84.2854 81.7502 4.60818
      vertex 82.5152 80.3687 2.5
      vertex 84.2854 79.8944 4.60818
    endloop
  endfacet
  facet normal -1 0 0
    outer loop
      vertex 84.2854 79.8944 4.60818
      vertex 84.2854 81.7502 5
      vertex 84.2854 81.7502 4.60818
    endloop
  endfacet
  facet normal -1 -0 0
    outer loop
      vertex 84.2854 81.7502 5
      vertex 84.2854 79.8944 4.60818
      vertex 84.2854 79.8944 5
    endloop
  endfacet
  facet normal -1 0 0
    outer loop
      vertex 82.5152 80.3687 0
      vertex 82.5152 81.2759 2.5
      vertex 82.5152 81.2759 0
    endloop
  endfacet
  facet normal -1 -0 0
    outer loop
      vertex 82.5152 81.2759 2.5
      vertex 82.5152 80.3687 0
      vertex 82.5152 80.3687 2.5
    endloop
  endfacet
  facet normal -0.663214 0.382941 0.643043
    outer loop
      vertex 82.5152 80.3687 2.5
      vertex 83.3574 78.2872 4.60818
      vertex 84.2854 79.8944 4.60818
    endloop
  endfacet
  facet normal -0.663251 0.382908 0.643025
    outer loop
      vertex 82.0616 79.583 2.5
      vertex 83.3574 78.2872 4.60818
      vertex 82.5152 80.3687 2.5
    endloop
  endfacet
  facet normal -0.866006 0.500033 0
    outer loop
      vertex 83.3574 78.2872 4.60818
      vertex 84.2854 79.8944 5
      vertex 84.2854 79.8944 4.60818
    endloop
  endfacet
  facet normal -0.866006 0.500033 0
    outer loop
      vertex 84.2854 79.8944 5
      vertex 83.3574 78.2872 4.60818
      vertex 83.3574 78.2872 5
    endloop
  endfacet
  facet normal -0.866037 0.49998 0
    outer loop
      vertex 82.0616 79.583 0
      vertex 82.5152 80.3687 2.5
      vertex 82.5152 80.3687 0
    endloop
  endfacet
  facet normal -0.866037 0.49998 0
    outer loop
      vertex 82.5152 80.3687 2.5
      vertex 82.0616 79.583 0
      vertex 82.0616 79.583 2.5
    endloop
  endfacet
  facet normal -0.382946 0.663222 0.643031
    outer loop
      vertex 82.0616 79.583 2.5
      vertex 81.7502 77.3592 4.60818
      vertex 83.3574 78.2872 4.60818
    endloop
  endfacet
  facet normal -0.382897 0.663233 0.643049
    outer loop
      vertex 81.2759 79.1294 2.5
      vertex 81.7502 77.3592 4.60818
      vertex 82.0616 79.583 2.5
    endloop
  endfacet
  facet normal -0.500033 0.866006 0
    outer loop
      vertex 83.3574 78.2872 4.60818
      vertex 81.7502 77.3592 5
      vertex 83.3574 78.2872 5
    endloop
  endfacet
  facet normal -0.500033 0.866006 0
    outer loop
      vertex 81.7502 77.3592 5
      vertex 83.3574 78.2872 4.60818
      vertex 81.7502 77.3592 4.60818
    endloop
  endfacet
  facet normal -0.49998 0.866037 0
    outer loop
      vertex 82.0616 79.583 0
      vertex 81.2759 79.1294 2.5
      vertex 82.0616 79.583 2.5
    endloop
  endfacet
  facet normal -0.49998 0.866037 0
    outer loop
      vertex 81.2759 79.1294 2.5
      vertex 82.0616 79.583 0
      vertex 81.2759 79.1294 0
    endloop
  endfacet
  facet normal 0 0.765825 0.643049
    outer loop
      vertex 81.2759 79.1294 2.5
      vertex 79.8944 77.3592 4.60818
      vertex 81.7502 77.3592 4.60818
    endloop
  endfacet
  facet normal 0 0.765825 0.643049
    outer loop
      vertex 79.8944 77.3592 4.60818
      vertex 81.2759 79.1294 2.5
      vertex 80.3687 79.1294 2.5
    endloop
  endfacet
  facet normal 0 1 -0
    outer loop
      vertex 81.7502 77.3592 4.60818
      vertex 79.8944 77.3592 5
      vertex 81.7502 77.3592 5
    endloop
  endfacet
  facet normal 0 1 0
    outer loop
      vertex 79.8944 77.3592 5
      vertex 81.7502 77.3592 4.60818
      vertex 79.8944 77.3592 4.60818
    endloop
  endfacet
  facet normal 0 1 -0
    outer loop
      vertex 81.2759 79.1294 0
      vertex 80.3687 79.1294 2.5
      vertex 81.2759 79.1294 2.5
    endloop
  endfacet
  facet normal 0 1 0
    outer loop
      vertex 80.3687 79.1294 2.5
      vertex 81.2759 79.1294 0
      vertex 80.3687 79.1294 0
    endloop
  endfacet
  facet normal 0.382941 0.663214 0.643043
    outer loop
      vertex 80.3687 79.1294 2.5
      vertex 78.2872 78.2872 4.60818
      vertex 79.8944 77.3592 4.60818
    endloop
  endfacet
  facet normal 0.382908 0.663251 0.643025
    outer loop
      vertex 79.583 79.583 2.5
      vertex 78.2872 78.2872 4.60818
      vertex 80.3687 79.1294 2.5
    endloop
  endfacet
  facet normal 0.500033 0.866006 -0
    outer loop
      vertex 79.8944 77.3592 4.60818
      vertex 78.2872 78.2872 5
      vertex 79.8944 77.3592 5
    endloop
  endfacet
  facet normal 0.500033 0.866006 0
    outer loop
      vertex 78.2872 78.2872 5
      vertex 79.8944 77.3592 4.60818
      vertex 78.2872 78.2872 4.60818
    endloop
  endfacet
  facet normal 0.49998 0.866037 -0
    outer loop
      vertex 80.3687 79.1294 0
      vertex 79.583 79.583 2.5
      vertex 80.3687 79.1294 2.5
    endloop
  endfacet
  facet normal 0.49998 0.866037 0
    outer loop
      vertex 79.583 79.583 2.5
      vertex 80.3687 79.1294 0
      vertex 79.583 79.583 0
    endloop
  endfacet
  facet normal 0.663491 0.382498 0.64302
    outer loop
      vertex 158.182 160.717 4.60818
      vertex 159.109 159.109 4.60818
      vertex 160.405 160.405 2.5
    endloop
  endfacet
  facet normal 0.663511 0.382405 0.643055
    outer loop
      vertex 159.952 161.191 2.5
      vertex 158.182 160.717 4.60818
      vertex 160.405 160.405 2.5
    endloop
  endfacet
  facet normal 0.866347 0.499443 0
    outer loop
      vertex 159.109 159.109 5
      vertex 158.182 160.717 4.60818
      vertex 158.182 160.717 5
    endloop
  endfacet
  facet normal 0.866347 0.499443 0
    outer loop
      vertex 158.182 160.717 4.60818
      vertex 159.109 159.109 5
      vertex 159.109 159.109 4.60818
    endloop
  endfacet
  facet normal 0.866406 0.499341 0
    outer loop
      vertex 160.405 160.405 2.5
      vertex 159.952 161.191 0
      vertex 159.952 161.191 2.5
    endloop
  endfacet
  facet normal 0.866406 0.499341 0
    outer loop
      vertex 159.952 161.191 0
      vertex 160.405 160.405 2.5
      vertex 160.405 160.405 0
    endloop
  endfacet
  facet normal 0.765861 0 0.643007
    outer loop
      vertex 158.182 162.573 4.60818
      vertex 159.952 161.191 2.5
      vertex 159.952 162.098 2.5
    endloop
  endfacet
  facet normal 0.765861 0 0.643007
    outer loop
      vertex 159.952 161.191 2.5
      vertex 158.182 162.573 4.60818
      vertex 158.182 160.717 4.60818
    endloop
  endfacet
  facet normal 1 -0 0
    outer loop
      vertex 158.182 160.717 5
      vertex 158.182 162.573 4.60818
      vertex 158.182 162.573 5
    endloop
  endfacet
  facet normal 1 0 0
    outer loop
      vertex 158.182 162.573 4.60818
      vertex 158.182 160.717 5
      vertex 158.182 160.717 4.60818
    endloop
  endfacet
  facet normal 1 -0 0
    outer loop
      vertex 159.952 161.191 2.5
      vertex 159.952 162.098 0
      vertex 159.952 162.098 2.5
    endloop
  endfacet
  facet normal 1 0 0
    outer loop
      vertex 159.952 162.098 0
      vertex 159.952 161.191 2.5
      vertex 159.952 161.191 0
    endloop
  endfacet
  facet normal 0.663314 -0.382634 0.643122
    outer loop
      vertex 159.109 164.18 4.60818
      vertex 158.182 162.573 4.60818
      vertex 159.952 162.098 2.5
    endloop
  endfacet
  facet normal 0.663545 -0.382425 0.643008
    outer loop
      vertex 159.109 164.18 4.60818
      vertex 159.952 162.098 2.5
      vertex 160.405 162.884 2.5
    endloop
  endfacet
  facet normal 0.866213 -0.499676 0
    outer loop
      vertex 158.182 162.573 5
      vertex 159.109 164.18 4.60818
      vertex 159.109 164.18 5
    endloop
  endfacet
  facet normal 0.866213 -0.499676 0
    outer loop
      vertex 159.109 164.18 4.60818
      vertex 158.182 162.573 5
      vertex 158.182 162.573 4.60818
    endloop
  endfacet
  facet normal 0.866406 -0.499341 0
    outer loop
      vertex 159.952 162.098 2.5
      vertex 160.405 162.884 0
      vertex 160.405 162.884 2.5
    endloop
  endfacet
  facet normal 0.866406 -0.499341 0
    outer loop
      vertex 160.405 162.884 0
      vertex 159.952 162.098 2.5
      vertex 159.952 162.098 0
    endloop
  endfacet
  facet normal 0.382788 -0.663278 0.643067
    outer loop
      vertex 159.109 164.18 4.60818
      vertex 160.405 162.884 2.5
      vertex 160.717 165.108 4.60818
    endloop
  endfacet
  facet normal 0.382328 -0.663377 0.643239
    outer loop
      vertex 160.717 165.108 4.60818
      vertex 160.405 162.884 2.5
      vertex 161.191 163.337 2.5
    endloop
  endfacet
  facet normal 0.499847 -0.866114 0
    outer loop
      vertex 159.109 164.18 4.60818
      vertex 160.717 165.108 5
      vertex 159.109 164.18 5
    endloop
  endfacet
  facet normal 0.499847 -0.866114 0
    outer loop
      vertex 160.717 165.108 5
      vertex 159.109 164.18 4.60818
      vertex 160.717 165.108 4.60818
    endloop
  endfacet
  facet normal 0.499341 -0.866406 0
    outer loop
      vertex 160.405 162.884 0
      vertex 161.191 163.337 2.5
      vertex 160.405 162.884 2.5
    endloop
  endfacet
  facet normal 0.499341 -0.866406 0
    outer loop
      vertex 161.191 163.337 2.5
      vertex 160.405 162.884 0
      vertex 161.191 163.337 0
    endloop
  endfacet
  facet normal 0 -0.765682 0.64322
    outer loop
      vertex 161.191 163.337 2.5
      vertex 162.573 165.108 4.60818
      vertex 160.717 165.108 4.60818
    endloop
  endfacet
  facet normal 0 -0.765682 0.64322
    outer loop
      vertex 162.573 165.108 4.60818
      vertex 161.191 163.337 2.5
      vertex 162.098 163.337 2.5
    endloop
  endfacet
  facet normal 0 -1 0
    outer loop
      vertex 160.717 165.108 4.60818
      vertex 162.573 165.108 5
      vertex 160.717 165.108 5
    endloop
  endfacet
  facet normal 0 -1 -0
    outer loop
      vertex 162.573 165.108 5
      vertex 160.717 165.108 4.60818
      vertex 162.573 165.108 4.60818
    endloop
  endfacet
  facet normal 0 -1 0
    outer loop
      vertex 161.191 163.337 0
      vertex 162.098 163.337 2.5
      vertex 161.191 163.337 2.5
    endloop
  endfacet
  facet normal 0 -1 -0
    outer loop
      vertex 162.098 163.337 2.5
      vertex 161.191 163.337 0
      vertex 162.098 163.337 0
    endloop
  endfacet
  facet normal -0.382885 -0.663036 0.643259
    outer loop
      vertex 162.573 165.108 4.60818
      vertex 162.098 163.337 2.5
      vertex 164.18 164.18 4.60818
    endloop
  endfacet
  facet normal -0.382425 -0.663545 0.643008
    outer loop
      vertex 164.18 164.18 4.60818
      vertex 162.098 163.337 2.5
      vertex 162.884 162.884 2.5
    endloop
  endfacet
  facet normal -0.50008 -0.865979 0
    outer loop
      vertex 162.573 165.108 4.60818
      vertex 164.18 164.18 5
      vertex 162.573 165.108 5
    endloop
  endfacet
  facet normal -0.50008 -0.865979 -0
    outer loop
      vertex 164.18 164.18 5
      vertex 162.573 165.108 4.60818
      vertex 164.18 164.18 4.60818
    endloop
  endfacet
  facet normal -0.499341 -0.866406 0
    outer loop
      vertex 162.098 163.337 0
      vertex 162.884 162.884 2.5
      vertex 162.098 163.337 2.5
    endloop
  endfacet
  facet normal -0.499341 -0.866406 -0
    outer loop
      vertex 162.884 162.884 2.5
      vertex 162.098 163.337 0
      vertex 162.884 162.884 0
    endloop
  endfacet
  facet normal -0.663155 -0.382955 0.643094
    outer loop
      vertex 164.18 164.18 4.60818
      vertex 162.884 162.884 2.5
      vertex 165.108 162.573 4.60818
    endloop
  endfacet
  facet normal -0.663299 -0.382283 0.643345
    outer loop
      vertex 162.884 162.884 2.5
      vertex 163.337 162.098 2.5
      vertex 165.108 162.573 4.60818
    endloop
  endfacet
  facet normal -0.865979 -0.50008 0
    outer loop
      vertex 165.108 162.573 4.60818
      vertex 164.18 164.18 5
      vertex 164.18 164.18 4.60818
    endloop
  endfacet
  facet normal -0.865979 -0.50008 0
    outer loop
      vertex 164.18 164.18 5
      vertex 165.108 162.573 4.60818
      vertex 165.108 162.573 5
    endloop
  endfacet
  facet normal -0.866406 -0.499341 0
    outer loop
      vertex 163.337 162.098 0
      vertex 162.884 162.884 2.5
      vertex 162.884 162.884 0
    endloop
  endfacet
  facet normal -0.866406 -0.499341 0
    outer loop
      vertex 162.884 162.884 2.5
      vertex 163.337 162.098 0
      vertex 163.337 162.098 2.5
    endloop
  endfacet
  facet normal -0.765682 0 0.64322
    outer loop
      vertex 163.337 161.191 2.5
      vertex 165.108 162.573 4.60818
      vertex 163.337 162.098 2.5
    endloop
  endfacet
  facet normal -0.765682 0 0.64322
    outer loop
      vertex 165.108 162.573 4.60818
      vertex 163.337 161.191 2.5
      vertex 165.108 160.717 4.60818
    endloop
  endfacet
  facet normal -1 0 0
    outer loop
      vertex 165.108 160.717 4.60818
      vertex 165.108 162.573 5
      vertex 165.108 162.573 4.60818
    endloop
  endfacet
  facet normal -1 -0 0
    outer loop
      vertex 165.108 162.573 5
      vertex 165.108 160.717 4.60818
      vertex 165.108 160.717 5
    endloop
  endfacet
  facet normal -1 0 0
    outer loop
      vertex 163.337 161.191 0
      vertex 163.337 162.098 2.5
      vertex 163.337 162.098 0
    endloop
  endfacet
  facet normal -1 -0 0
    outer loop
      vertex 163.337 162.098 2.5
      vertex 163.337 161.191 0
      vertex 163.337 161.191 2.5
    endloop
  endfacet
  facet normal -0.663196 0.38274 0.64318
    outer loop
      vertex 163.337 161.191 2.5
      vertex 164.18 159.109 4.60818
      vertex 165.108 160.717 4.60818
    endloop
  endfacet
  facet normal -0.663545 0.382425 0.643008
    outer loop
      vertex 162.884 160.405 2.5
      vertex 164.18 159.109 4.60818
      vertex 163.337 161.191 2.5
    endloop
  endfacet
  facet normal -0.866114 0.499847 0
    outer loop
      vertex 164.18 159.109 4.60818
      vertex 165.108 160.717 5
      vertex 165.108 160.717 4.60818
    endloop
  endfacet
  facet normal -0.866114 0.499847 0
    outer loop
      vertex 165.108 160.717 5
      vertex 164.18 159.109 4.60818
      vertex 164.18 159.109 5
    endloop
  endfacet
  facet normal -0.866406 0.499341 0
    outer loop
      vertex 162.884 160.405 0
      vertex 163.337 161.191 2.5
      vertex 163.337 161.191 0
    endloop
  endfacet
  facet normal -0.866406 0.499341 0
    outer loop
      vertex 163.337 161.191 2.5
      vertex 162.884 160.405 0
      vertex 162.884 160.405 2.5
    endloop
  endfacet
  facet normal -0.382665 0.663368 0.643047
    outer loop
      vertex 162.884 160.405 2.5
      vertex 162.573 158.182 4.60818
      vertex 164.18 159.109 4.60818
    endloop
  endfacet
  facet normal -0.382361 0.663434 0.643161
    outer loop
      vertex 162.098 159.952 2.5
      vertex 162.573 158.182 4.60818
      vertex 162.884 160.405 2.5
    endloop
  endfacet
  facet normal -0.499676 0.866213 0
    outer loop
      vertex 164.18 159.109 4.60818
      vertex 162.573 158.182 5
      vertex 164.18 159.109 5
    endloop
  endfacet
  facet normal -0.499676 0.866213 0
    outer loop
      vertex 162.573 158.182 5
      vertex 164.18 159.109 4.60818
      vertex 162.573 158.182 4.60818
    endloop
  endfacet
  facet normal -0.499341 0.866406 0
    outer loop
      vertex 162.884 160.405 0
      vertex 162.098 159.952 2.5
      vertex 162.884 160.405 2.5
    endloop
  endfacet
  facet normal -0.499341 0.866406 0
    outer loop
      vertex 162.098 159.952 2.5
      vertex 162.884 160.405 0
      vertex 162.098 159.952 0
    endloop
  endfacet
  facet normal 0 0.765861 0.643007
    outer loop
      vertex 162.098 159.952 2.5
      vertex 160.717 158.182 4.60818
      vertex 162.573 158.182 4.60818
    endloop
  endfacet
  facet normal 0 0.765861 0.643007
    outer loop
      vertex 160.717 158.182 4.60818
      vertex 162.098 159.952 2.5
      vertex 161.191 159.952 2.5
    endloop
  endfacet
  facet normal 0 1 -0
    outer loop
      vertex 162.573 158.182 4.60818
      vertex 160.717 158.182 5
      vertex 162.573 158.182 5
    endloop
  endfacet
  facet normal 0 1 0
    outer loop
      vertex 160.717 158.182 5
      vertex 162.573 158.182 4.60818
      vertex 160.717 158.182 4.60818
    endloop
  endfacet
  facet normal 0 1 -0
    outer loop
      vertex 162.098 159.952 0
      vertex 161.191 159.952 2.5
      vertex 162.098 159.952 2.5
    endloop
  endfacet
  facet normal 0 1 0
    outer loop
      vertex 161.191 159.952 2.5
      vertex 162.098 159.952 0
      vertex 161.191 159.952 0
    endloop
  endfacet
  facet normal 0.382488 0.663475 0.643043
    outer loop
      vertex 161.191 159.952 2.5
      vertex 159.109 159.109 4.60818
      vertex 160.717 158.182 4.60818
    endloop
  endfacet
  facet normal 0.382425 0.663545 0.643008
    outer loop
      vertex 160.405 160.405 2.5
      vertex 159.109 159.109 4.60818
      vertex 161.191 159.952 2.5
    endloop
  endfacet
  facet normal 0.499443 0.866347 -0
    outer loop
      vertex 160.717 158.182 4.60818
      vertex 159.109 159.109 5
      vertex 160.717 158.182 5
    endloop
  endfacet
  facet normal 0.499443 0.866347 0
    outer loop
      vertex 159.109 159.109 5
      vertex 160.717 158.182 4.60818
      vertex 159.109 159.109 4.60818
    endloop
  endfacet
  facet normal 0.499341 0.866406 -0
    outer loop
      vertex 161.191 159.952 0
      vertex 160.405 160.405 2.5
      vertex 161.191 159.952 2.5
    endloop
  endfacet
  facet normal 0.499341 0.866406 0
    outer loop
      vertex 160.405 160.405 2.5
      vertex 161.191 159.952 0
      vertex 160.405 160.405 0
    endloop
  endfacet
  facet normal 0.663155 0.382955 0.643094
    outer loop
      vertex 239.004 241.539 4.60818
      vertex 239.932 239.932 4.60818
      vertex 241.228 241.228 2.5
    endloop
  endfacet
  facet normal 0.663045 0.383468 0.642902
    outer loop
      vertex 240.774 242.013 2.5
      vertex 239.004 241.539 4.60818
      vertex 241.228 241.228 2.5
    endloop
  endfacet
  facet normal 0.865979 0.50008 0
    outer loop
      vertex 239.932 239.932 5
      vertex 239.004 241.539 4.60818
      vertex 239.004 241.539 5
    endloop
  endfacet
  facet normal 0.865979 0.50008 0
    outer loop
      vertex 239.004 241.539 4.60818
      vertex 239.932 239.932 5
      vertex 239.932 239.932 4.60818
    endloop
  endfacet
  facet normal 0.865653 0.500645 0
    outer loop
      vertex 241.228 241.228 2.5
      vertex 240.774 242.013 0
      vertex 240.774 242.013 2.5
    endloop
  endfacet
  facet normal 0.865653 0.500645 0
    outer loop
      vertex 240.774 242.013 0
      vertex 241.228 241.228 2.5
      vertex 241.228 241.228 0
    endloop
  endfacet
  facet normal 0.765861 0 0.643007
    outer loop
      vertex 239.004 243.395 4.60818
      vertex 240.774 242.013 2.5
      vertex 240.774 242.921 2.5
    endloop
  endfacet
  facet normal 0.765861 0 0.643007
    outer loop
      vertex 240.774 242.013 2.5
      vertex 239.004 243.395 4.60818
      vertex 239.004 241.539 4.60818
    endloop
  endfacet
  facet normal 1 -0 0
    outer loop
      vertex 239.004 241.539 5
      vertex 239.004 243.395 4.60818
      vertex 239.004 243.395 5
    endloop
  endfacet
  facet normal 1 0 0
    outer loop
      vertex 239.004 243.395 4.60818
      vertex 239.004 241.539 5
      vertex 239.004 241.539 4.60818
    endloop
  endfacet
  facet normal 1 -0 0
    outer loop
      vertex 240.774 242.013 2.5
      vertex 240.774 242.921 0
      vertex 240.774 242.921 2.5
    endloop
  endfacet
  facet normal 1 0 0
    outer loop
      vertex 240.774 242.921 0
      vertex 240.774 242.013 2.5
      vertex 240.774 242.013 0
    endloop
  endfacet
  facet normal 0.663247 -0.383008 0.642968
    outer loop
      vertex 239.932 245.002 4.60818
      vertex 239.004 243.395 4.60818
      vertex 240.774 242.921 2.5
    endloop
  endfacet
  facet normal 0.662858 -0.38336 0.64316
    outer loop
      vertex 239.932 245.002 4.60818
      vertex 240.774 242.921 2.5
      vertex 241.228 243.706 2.5
    endloop
  endfacet
  facet normal 0.865979 -0.50008 0
    outer loop
      vertex 239.004 243.395 5
      vertex 239.932 245.002 4.60818
      vertex 239.932 245.002 5
    endloop
  endfacet
  facet normal 0.865979 -0.50008 0
    outer loop
      vertex 239.932 245.002 4.60818
      vertex 239.004 243.395 5
      vertex 239.004 243.395 4.60818
    endloop
  endfacet
  facet normal 0.865653 -0.500645 0
    outer loop
      vertex 240.774 242.921 2.5
      vertex 241.228 243.706 0
      vertex 241.228 243.706 2.5
    endloop
  endfacet
  facet normal 0.865653 -0.500645 0
    outer loop
      vertex 241.228 243.706 0
      vertex 240.774 242.921 2.5
      vertex 240.774 242.921 0
    endloop
  endfacet
  facet normal 0.382955 -0.663155 0.643094
    outer loop
      vertex 239.932 245.002 4.60818
      vertex 241.228 243.706 2.5
      vertex 241.539 245.93 4.60818
    endloop
  endfacet
  facet normal 0.383468 -0.663045 0.642902
    outer loop
      vertex 241.539 245.93 4.60818
      vertex 241.228 243.706 2.5
      vertex 242.013 244.16 2.5
    endloop
  endfacet
  facet normal 0.50008 -0.865979 0
    outer loop
      vertex 239.932 245.002 4.60818
      vertex 241.539 245.93 5
      vertex 239.932 245.002 5
    endloop
  endfacet
  facet normal 0.50008 -0.865979 0
    outer loop
      vertex 241.539 245.93 5
      vertex 239.932 245.002 4.60818
      vertex 241.539 245.93 4.60818
    endloop
  endfacet
  facet normal 0.500645 -0.865653 0
    outer loop
      vertex 241.228 243.706 0
      vertex 242.013 244.16 2.5
      vertex 241.228 243.706 2.5
    endloop
  endfacet
  facet normal 0.500645 -0.865653 0
    outer loop
      vertex 242.013 244.16 2.5
      vertex 241.228 243.706 0
      vertex 242.013 244.16 0
    endloop
  endfacet
  facet normal 0 -0.765861 0.643007
    outer loop
      vertex 242.013 244.16 2.5
      vertex 243.395 245.93 4.60818
      vertex 241.539 245.93 4.60818
    endloop
  endfacet
  facet normal 0 -0.765861 0.643007
    outer loop
      vertex 243.395 245.93 4.60818
      vertex 242.013 244.16 2.5
      vertex 242.921 244.16 2.5
    endloop
  endfacet
  facet normal 0 -1 0
    outer loop
      vertex 241.539 245.93 4.60818
      vertex 243.395 245.93 5
      vertex 241.539 245.93 5
    endloop
  endfacet
  facet normal 0 -1 -0
    outer loop
      vertex 243.395 245.93 5
      vertex 241.539 245.93 4.60818
      vertex 243.395 245.93 4.60818
    endloop
  endfacet
  facet normal 0 -1 0
    outer loop
      vertex 242.013 244.16 0
      vertex 242.921 244.16 2.5
      vertex 242.013 244.16 2.5
    endloop
  endfacet
  facet normal 0 -1 -0
    outer loop
      vertex 242.921 244.16 2.5
      vertex 242.013 244.16 0
      vertex 242.921 244.16 0
    endloop
  endfacet
  facet normal -0.383008 -0.663247 0.642968
    outer loop
      vertex 243.395 245.93 4.60818
      vertex 242.921 244.16 2.5
      vertex 245.002 245.002 4.60818
    endloop
  endfacet
  facet normal -0.38336 -0.662858 0.64316
    outer loop
      vertex 245.002 245.002 4.60818
      vertex 242.921 244.16 2.5
      vertex 243.706 243.706 2.5
    endloop
  endfacet
  facet normal -0.50008 -0.865979 0
    outer loop
      vertex 243.395 245.93 4.60818
      vertex 245.002 245.002 5
      vertex 243.395 245.93 5
    endloop
  endfacet
  facet normal -0.50008 -0.865979 -0
    outer loop
      vertex 245.002 245.002 5
      vertex 243.395 245.93 4.60818
      vertex 245.002 245.002 4.60818
    endloop
  endfacet
  facet normal -0.500645 -0.865653 0
    outer loop
      vertex 242.921 244.16 0
      vertex 243.706 243.706 2.5
      vertex 242.921 244.16 2.5
    endloop
  endfacet
  facet normal -0.500645 -0.865653 -0
    outer loop
      vertex 243.706 243.706 2.5
      vertex 242.921 244.16 0
      vertex 243.706 243.706 0
    endloop
  endfacet
  facet normal -0.663155 -0.382955 0.643094
    outer loop
      vertex 245.002 245.002 4.60818
      vertex 243.706 243.706 2.5
      vertex 245.93 243.395 4.60818
    endloop
  endfacet
  facet normal -0.663045 -0.383468 0.642902
    outer loop
      vertex 243.706 243.706 2.5
      vertex 244.16 242.921 2.5
      vertex 245.93 243.395 4.60818
    endloop
  endfacet
  facet normal -0.865979 -0.50008 0
    outer loop
      vertex 245.93 243.395 4.60818
      vertex 245.002 245.002 5
      vertex 245.002 245.002 4.60818
    endloop
  endfacet
  facet normal -0.865979 -0.50008 0
    outer loop
      vertex 245.002 245.002 5
      vertex 245.93 243.395 4.60818
      vertex 245.93 243.395 5
    endloop
  endfacet
  facet normal -0.865653 -0.500645 0
    outer loop
      vertex 244.16 242.921 0
      vertex 243.706 243.706 2.5
      vertex 243.706 243.706 0
    endloop
  endfacet
  facet normal -0.865653 -0.500645 0
    outer loop
      vertex 243.706 243.706 2.5
      vertex 244.16 242.921 0
      vertex 244.16 242.921 2.5
    endloop
  endfacet
  facet normal -0.765861 0 0.643007
    outer loop
      vertex 244.16 242.013 2.5
      vertex 245.93 243.395 4.60818
      vertex 244.16 242.921 2.5
    endloop
  endfacet
  facet normal -0.765861 0 0.643007
    outer loop
      vertex 245.93 243.395 4.60818
      vertex 244.16 242.013 2.5
      vertex 245.93 241.539 4.60818
    endloop
  endfacet
  facet normal -1 0 0
    outer loop
      vertex 245.93 241.539 4.60818
      vertex 245.93 243.395 5
      vertex 245.93 243.395 4.60818
    endloop
  endfacet
  facet normal -1 -0 0
    outer loop
      vertex 245.93 243.395 5
      vertex 245.93 241.539 4.60818
      vertex 245.93 241.539 5
    endloop
  endfacet
  facet normal -1 0 0
    outer loop
      vertex 244.16 242.013 0
      vertex 244.16 242.921 2.5
      vertex 244.16 242.921 0
    endloop
  endfacet
  facet normal -1 -0 0
    outer loop
      vertex 244.16 242.921 2.5
      vertex 244.16 242.013 0
      vertex 244.16 242.013 2.5
    endloop
  endfacet
  facet normal -0.663247 0.383008 0.642968
    outer loop
      vertex 244.16 242.013 2.5
      vertex 245.002 239.932 4.60818
      vertex 245.93 241.539 4.60818
    endloop
  endfacet
  facet normal -0.662858 0.38336 0.64316
    outer loop
      vertex 243.706 241.228 2.5
      vertex 245.002 239.932 4.60818
      vertex 244.16 242.013 2.5
    endloop
  endfacet
  facet normal -0.865979 0.50008 0
    outer loop
      vertex 245.002 239.932 4.60818
      vertex 245.93 241.539 5
      vertex 245.93 241.539 4.60818
    endloop
  endfacet
  facet normal -0.865979 0.50008 0
    outer loop
      vertex 245.93 241.539 5
      vertex 245.002 239.932 4.60818
      vertex 245.002 239.932 5
    endloop
  endfacet
  facet normal -0.865653 0.500645 0
    outer loop
      vertex 243.706 241.228 0
      vertex 244.16 242.013 2.5
      vertex 244.16 242.013 0
    endloop
  endfacet
  facet normal -0.865653 0.500645 0
    outer loop
      vertex 244.16 242.013 2.5
      vertex 243.706 241.228 0
      vertex 243.706 241.228 2.5
    endloop
  endfacet
  facet normal -0.382955 0.663155 0.643094
    outer loop
      vertex 243.706 241.228 2.5
      vertex 243.395 239.004 4.60818
      vertex 245.002 239.932 4.60818
    endloop
  endfacet
  facet normal -0.383468 0.663045 0.642902
    outer loop
      vertex 242.921 240.774 2.5
      vertex 243.395 239.004 4.60818
      vertex 243.706 241.228 2.5
    endloop
  endfacet
  facet normal -0.50008 0.865979 0
    outer loop
      vertex 245.002 239.932 4.60818
      vertex 243.395 239.004 5
      vertex 245.002 239.932 5
    endloop
  endfacet
  facet normal -0.50008 0.865979 0
    outer loop
      vertex 243.395 239.004 5
      vertex 245.002 239.932 4.60818
      vertex 243.395 239.004 4.60818
    endloop
  endfacet
  facet normal -0.500645 0.865653 0
    outer loop
      vertex 243.706 241.228 0
      vertex 242.921 240.774 2.5
      vertex 243.706 241.228 2.5
    endloop
  endfacet
  facet normal -0.500645 0.865653 0
    outer loop
      vertex 242.921 240.774 2.5
      vertex 243.706 241.228 0
      vertex 242.921 240.774 0
    endloop
  endfacet
  facet normal 0 0.765861 0.643007
    outer loop
      vertex 242.921 240.774 2.5
      vertex 241.539 239.004 4.60818
      vertex 243.395 239.004 4.60818
    endloop
  endfacet
  facet normal 0 0.765861 0.643007
    outer loop
      vertex 241.539 239.004 4.60818
      vertex 242.921 240.774 2.5
      vertex 242.013 240.774 2.5
    endloop
  endfacet
  facet normal 0 1 -0
    outer loop
      vertex 243.395 239.004 4.60818
      vertex 241.539 239.004 5
      vertex 243.395 239.004 5
    endloop
  endfacet
  facet normal 0 1 0
    outer loop
      vertex 241.539 239.004 5
      vertex 243.395 239.004 4.60818
      vertex 241.539 239.004 4.60818
    endloop
  endfacet
  facet normal 0 1 -0
    outer loop
      vertex 242.921 240.774 0
      vertex 242.013 240.774 2.5
      vertex 242.921 240.774 2.5
    endloop
  endfacet
  facet normal 0 1 0
    outer loop
      vertex 242.013 240.774 2.5
      vertex 242.921 240.774 0
      vertex 242.013 240.774 0
    endloop
  endfacet
  facet normal 0.383008 0.663247 0.642968
    outer loop
      vertex 242.013 240.774 2.5
      vertex 239.932 239.932 4.60818
      vertex 241.539 239.004 4.60818
    endloop
  endfacet
  facet normal 0.38336 0.662858 0.64316
    outer loop
      vertex 241.228 241.228 2.5
      vertex 239.932 239.932 4.60818
      vertex 242.013 240.774 2.5
    endloop
  endfacet
  facet normal 0.50008 0.865979 -0
    outer loop
      vertex 241.539 239.004 4.60818
      vertex 239.932 239.932 5
      vertex 241.539 239.004 5
    endloop
  endfacet
  facet normal 0.50008 0.865979 0
    outer loop
      vertex 239.932 239.932 5
      vertex 241.539 239.004 4.60818
      vertex 239.932 239.932 4.60818
    endloop
  endfacet
  facet normal 0.500645 0.865653 -0
    outer loop
      vertex 242.013 240.774 0
      vertex 241.228 241.228 2.5
      vertex 242.013 240.774 2.5
    endloop
  endfacet
  facet normal 0.500645 0.865653 0
    outer loop
      vertex 241.228 241.228 2.5
      vertex 242.013 240.774 0
      vertex 241.228 241.228 0
    endloop
  endfacet
endsolid OpenSCAD_Model
