solid OpenSCAD_Model
  facet normal -0.939692 -0.342021 -0
    outer loop
      vertex 20.5212 -56.3816 5
      vertex 20.5212 -56.3816 0
      vertex 23.9414 -65.7785 0
    endloop
  endfacet
  facet normal -0.939692 -0.342021 -0
    outer loop
      vertex 23.9414 -65.7785 5
      vertex 20.5212 -56.3816 5
      vertex 23.9414 -65.7785 0
    endloop
  endfacet
  facet normal -0.906306 0.422623 0
    outer loop
      vertex 29.5833 63.4415 0
      vertex 25.3571 54.3785 0
      vertex 25.3571 54.3785 5
    endloop
  endfacet
  facet normal -0.906306 0.422623 0
    outer loop
      vertex 29.5833 63.4415 0
      vertex 25.3571 54.3785 5
      vertex 29.5833 63.4415 5
    endloop
  endfacet
  facet normal 0 -0 1
    outer loop
      vertex 23.9414 -65.7785 5
      vertex 27.3512 -64.4353 5
      vertex 20.5212 -56.3816 5
    endloop
  endfacet
  facet normal 0 0 1
    outer loop
      vertex 27.3512 -64.4353 5
      vertex 23.4439 -55.2303 5
      vertex 20.5212 -56.3816 5
    endloop
  endfacet
  facet normal 0.366512 -0.930413 0
    outer loop
      vertex 23.9414 -65.7785 0
      vertex 27.3512 -64.4353 0
      vertex 23.9414 -65.7785 5
    endloop
  endfacet
  facet normal 0.366512 -0.930413 0
    outer loop
      vertex 27.3512 -64.4353 0
      vertex 27.3512 -64.4353 5
      vertex 23.9414 -65.7785 5
    endloop
  endfacet
  facet normal 0 0 -1
    outer loop
      vertex 20.5212 -56.3816 0
      vertex 23.4439 -55.2303 0
      vertex 23.9414 -65.7785 0
    endloop
  endfacet
  facet normal 0 0 -1
    outer loop
      vertex 23.4439 -55.2303 0
      vertex 27.3512 -64.4353 0
      vertex 23.9414 -65.7785 0
    endloop
  endfacet
  facet normal -0.366506 0.930416 0
    outer loop
      vertex 20.5212 -56.3816 5
      vertex 23.4439 -55.2303 5
      vertex 20.5212 -56.3816 0
    endloop
  endfacet
  facet normal -0.366506 0.930416 0
    outer loop
      vertex 23.4439 -55.2303 5
      vertex 23.4439 -55.2303 0
      vertex 20.5212 -56.3816 0
    endloop
  endfacet
  facet normal 0 -0 1
    outer loop
      vertex 27.3512 -64.4353 5
      vertex 30.686 -62.9156 5
      vertex 23.4439 -55.2303 5
    endloop
  endfacet
  facet normal 0 0 1
    outer loop
      vertex 30.686 -62.9156 5
      vertex 26.3023 -53.9276 5
      vertex 23.4439 -55.2303 5
    endloop
  endfacet
  facet normal 0.414681 -0.909967 0
    outer loop
      vertex 27.3512 -64.4353 0
      vertex 30.686 -62.9156 0
      vertex 27.3512 -64.4353 5
    endloop
  endfacet
  facet normal 0.414681 -0.909967 0
    outer loop
      vertex 30.686 -62.9156 0
      vertex 30.686 -62.9156 5
      vertex 27.3512 -64.4353 5
    endloop
  endfacet
  facet normal 0 0 -1
    outer loop
      vertex 23.4439 -55.2303 0
      vertex 26.3023 -53.9276 0
      vertex 27.3512 -64.4353 0
    endloop
  endfacet
  facet normal 0 0 -1
    outer loop
      vertex 26.3023 -53.9276 0
      vertex 30.686 -62.9156 0
      vertex 27.3512 -64.4353 0
    endloop
  endfacet
  facet normal -0.414707 0.909955 0
    outer loop
      vertex 23.4439 -55.2303 5
      vertex 26.3023 -53.9276 5
      vertex 23.4439 -55.2303 0
    endloop
  endfacet
  facet normal -0.414707 0.909955 0
    outer loop
      vertex 26.3023 -53.9276 5
      vertex 26.3023 -53.9276 0
      vertex 23.4439 -55.2303 0
    endloop
  endfacet
  facet normal 0 -0 1
    outer loop
      vertex 30.686 -62.9156 5
      vertex 33.9367 -61.2234 5
      vertex 26.3023 -53.9276 5
    endloop
  endfacet
  facet normal 0 0 1
    outer loop
      vertex 33.9367 -61.2234 5
      vertex 29.0886 -52.4772 5
      vertex 26.3023 -53.9276 5
    endloop
  endfacet
  facet normal 0.461747 -0.887012 0
    outer loop
      vertex 30.686 -62.9156 0
      vertex 33.9367 -61.2234 0
      vertex 30.686 -62.9156 5
    endloop
  endfacet
  facet normal 0.461747 -0.887012 0
    outer loop
      vertex 33.9367 -61.2234 0
      vertex 33.9367 -61.2234 5
      vertex 30.686 -62.9156 5
    endloop
  endfacet
  facet normal 0 0 -1
    outer loop
      vertex 26.3023 -53.9276 0
      vertex 29.0886 -52.4772 0
      vertex 30.686 -62.9156 0
    endloop
  endfacet
  facet normal 0 0 -1
    outer loop
      vertex 29.0886 -52.4772 0
      vertex 33.9367 -61.2234 0
      vertex 30.686 -62.9156 0
    endloop
  endfacet
  facet normal -0.461735 0.887018 0
    outer loop
      vertex 26.3023 -53.9276 5
      vertex 29.0886 -52.4772 5
      vertex 26.3023 -53.9276 0
    endloop
  endfacet
  facet normal -0.461735 0.887018 0
    outer loop
      vertex 29.0886 -52.4772 5
      vertex 29.0886 -52.4772 0
      vertex 26.3023 -53.9276 0
    endloop
  endfacet
  facet normal 0 -0 1
    outer loop
      vertex 33.9367 -61.2234 5
      vertex 37.0943 -59.3634 5
      vertex 29.0886 -52.4772 5
    endloop
  endfacet
  facet normal 0 0 1
    outer loop
      vertex 37.0943 -59.3634 5
      vertex 31.7952 -50.8829 5
      vertex 29.0886 -52.4772 5
    endloop
  endfacet
  facet normal 0.507545 -0.861625 0
    outer loop
      vertex 33.9367 -61.2234 0
      vertex 37.0943 -59.3634 0
      vertex 33.9367 -61.2234 5
    endloop
  endfacet
  facet normal 0.507545 -0.861625 0
    outer loop
      vertex 37.0943 -59.3634 0
      vertex 37.0943 -59.3634 5
      vertex 33.9367 -61.2234 5
    endloop
  endfacet
  facet normal 0 0 -1
    outer loop
      vertex 29.0886 -52.4772 0
      vertex 31.7952 -50.8829 0
      vertex 33.9367 -61.2234 0
    endloop
  endfacet
  facet normal 0 0 -1
    outer loop
      vertex 31.7952 -50.8829 0
      vertex 37.0943 -59.3634 0
      vertex 33.9367 -61.2234 0
    endloop
  endfacet
  facet normal -0.507536 0.86163 0
    outer loop
      vertex 29.0886 -52.4772 5
      vertex 31.7952 -50.8829 5
      vertex 29.0886 -52.4772 0
    endloop
  endfacet
  facet normal -0.507536 0.86163 0
    outer loop
      vertex 31.7952 -50.8829 5
      vertex 31.7952 -50.8829 0
      vertex 29.0886 -52.4772 0
    endloop
  endfacet
  facet normal 0 -0 1
    outer loop
      vertex 37.0943 -59.3634 5
      vertex 40.1503 -57.3406 5
      vertex 31.7952 -50.8829 5
    endloop
  endfacet
  facet normal 0 0 1
    outer loop
      vertex 40.1503 -57.3406 5
      vertex 34.4146 -49.1491 5
      vertex 31.7952 -50.8829 5
    endloop
  endfacet
  facet normal 0.551952 -0.833876 0
    outer loop
      vertex 37.0943 -59.3634 0
      vertex 40.1503 -57.3406 0
      vertex 37.0943 -59.3634 5
    endloop
  endfacet
  facet normal 0.551952 -0.833876 0
    outer loop
      vertex 40.1503 -57.3406 0
      vertex 40.1503 -57.3406 5
      vertex 37.0943 -59.3634 5
    endloop
  endfacet
  facet normal 0 0 -1
    outer loop
      vertex 31.7952 -50.8829 0
      vertex 34.4146 -49.1491 0
      vertex 37.0943 -59.3634 0
    endloop
  endfacet
  facet normal 0 0 -1
    outer loop
      vertex 34.4146 -49.1491 0
      vertex 40.1503 -57.3406 0
      vertex 37.0943 -59.3634 0
    endloop
  endfacet
  facet normal -0.55195 0.833877 0
    outer loop
      vertex 31.7952 -50.8829 5
      vertex 34.4146 -49.1491 5
      vertex 31.7952 -50.8829 0
    endloop
  endfacet
  facet normal -0.55195 0.833877 0
    outer loop
      vertex 34.4146 -49.1491 5
      vertex 34.4146 -49.1491 0
      vertex 31.7952 -50.8829 0
    endloop
  endfacet
  facet normal 0 -0 1
    outer loop
      vertex 40.1503 -57.3406 5
      vertex 43.0963 -55.1608 5
      vertex 34.4146 -49.1491 5
    endloop
  endfacet
  facet normal 0 0 1
    outer loop
      vertex 43.0963 -55.1608 5
      vertex 36.9397 -47.2806 5
      vertex 34.4146 -49.1491 5
    endloop
  endfacet
  facet normal 0.594801 -0.803873 0
    outer loop
      vertex 40.1503 -57.3406 0
      vertex 43.0963 -55.1608 0
      vertex 40.1503 -57.3406 5
    endloop
  endfacet
  facet normal 0.594801 -0.803873 0
    outer loop
      vertex 43.0963 -55.1608 0
      vertex 43.0963 -55.1608 5
      vertex 40.1503 -57.3406 5
    endloop
  endfacet
  facet normal 0 0 -1
    outer loop
      vertex 34.4146 -49.1491 0
      vertex 36.9397 -47.2806 0
      vertex 40.1503 -57.3406 0
    endloop
  endfacet
  facet normal 0 0 -1
    outer loop
      vertex 36.9397 -47.2806 0
      vertex 43.0963 -55.1608 0
      vertex 40.1503 -57.3406 0
    endloop
  endfacet
  facet normal -0.594828 0.803853 0
    outer loop
      vertex 34.4146 -49.1491 5
      vertex 36.9397 -47.2806 5
      vertex 34.4146 -49.1491 0
    endloop
  endfacet
  facet normal -0.594828 0.803853 0
    outer loop
      vertex 36.9397 -47.2806 5
      vertex 36.9397 -47.2806 0
      vertex 34.4146 -49.1491 0
    endloop
  endfacet
  facet normal 0 -0 1
    outer loop
      vertex 43.0963 -55.1608 5
      vertex 45.9241 -52.8297 5
      vertex 36.9397 -47.2806 5
    endloop
  endfacet
  facet normal 0 0 1
    outer loop
      vertex 45.9241 -52.8297 5
      vertex 39.3635 -45.2826 5
      vertex 36.9397 -47.2806 5
    endloop
  endfacet
  facet normal 0.636085 -0.771619 0
    outer loop
      vertex 43.0963 -55.1608 0
      vertex 45.9241 -52.8297 0
      vertex 43.0963 -55.1608 5
    endloop
  endfacet
  facet normal 0.636085 -0.771619 0
    outer loop
      vertex 45.9241 -52.8297 0
      vertex 45.9241 -52.8297 5
      vertex 43.0963 -55.1608 5
    endloop
  endfacet
  facet normal 0 0 -1
    outer loop
      vertex 36.9397 -47.2806 0
      vertex 39.3635 -45.2826 0
      vertex 43.0963 -55.1608 0
    endloop
  endfacet
  facet normal 0 0 -1
    outer loop
      vertex 39.3635 -45.2826 0
      vertex 45.9241 -52.8297 0
      vertex 43.0963 -55.1608 0
    endloop
  endfacet
  facet normal -0.636073 0.771629 0
    outer loop
      vertex 36.9397 -47.2806 5
      vertex 39.3635 -45.2826 5
      vertex 36.9397 -47.2806 0
    endloop
  endfacet
  facet normal -0.636073 0.771629 0
    outer loop
      vertex 39.3635 -45.2826 5
      vertex 39.3635 -45.2826 0
      vertex 36.9397 -47.2806 0
    endloop
  endfacet
  facet normal 0 -0 1
    outer loop
      vertex 45.9241 -52.8297 5
      vertex 48.6261 -50.3538 5
      vertex 39.3635 -45.2826 5
    endloop
  endfacet
  facet normal 0 0 1
    outer loop
      vertex 48.6261 -50.3538 5
      vertex 41.6795 -43.1604 5
      vertex 39.3635 -45.2826 5
    endloop
  endfacet
  facet normal 0.675586 -0.737281 0
    outer loop
      vertex 45.9241 -52.8297 0
      vertex 48.6261 -50.3538 0
      vertex 45.9241 -52.8297 5
    endloop
  endfacet
  facet normal 0.675586 -0.737281 0
    outer loop
      vertex 48.6261 -50.3538 0
      vertex 48.6261 -50.3538 5
      vertex 45.9241 -52.8297 5
    endloop
  endfacet
  facet normal 0 0 -1
    outer loop
      vertex 39.3635 -45.2826 0
      vertex 41.6795 -43.1604 0
      vertex 45.9241 -52.8297 0
    endloop
  endfacet
  facet normal 0 0 -1
    outer loop
      vertex 41.6795 -43.1604 0
      vertex 48.6261 -50.3538 0
      vertex 45.9241 -52.8297 0
    endloop
  endfacet
  facet normal -0.675586 0.737281 0
    outer loop
      vertex 39.3635 -45.2826 5
      vertex 41.6795 -43.1604 5
      vertex 39.3635 -45.2826 0
    endloop
  endfacet
  facet normal -0.675586 0.737281 0
    outer loop
      vertex 41.6795 -43.1604 5
      vertex 41.6795 -43.1604 0
      vertex 39.3635 -45.2826 0
    endloop
  endfacet
  facet normal 0 -0 1
    outer loop
      vertex 48.6261 -50.3538 5
      vertex 51.1948 -47.7399 5
      vertex 41.6795 -43.1604 5
    endloop
  endfacet
  facet normal 0 0 1
    outer loop
      vertex 51.1948 -47.7399 5
      vertex 43.8812 -40.9199 5
      vertex 41.6795 -43.1604 5
    endloop
  endfacet
  facet normal 0.713247 -0.700913 0
    outer loop
      vertex 48.6261 -50.3538 0
      vertex 51.1948 -47.7399 0
      vertex 48.6261 -50.3538 5
    endloop
  endfacet
  facet normal 0.713247 -0.700913 0
    outer loop
      vertex 51.1948 -47.7399 0
      vertex 51.1948 -47.7399 5
      vertex 48.6261 -50.3538 5
    endloop
  endfacet
  facet normal 0 0 -1
    outer loop
      vertex 41.6795 -43.1604 0
      vertex 43.8812 -40.9199 0
      vertex 48.6261 -50.3538 0
    endloop
  endfacet
  facet normal 0 0 -1
    outer loop
      vertex 43.8812 -40.9199 0
      vertex 51.1948 -47.7399 0
      vertex 48.6261 -50.3538 0
    endloop
  endfacet
  facet normal -0.713256 0.700904 0
    outer loop
      vertex 41.6795 -43.1604 5
      vertex 43.8812 -40.9199 5
      vertex 41.6795 -43.1604 0
    endloop
  endfacet
  facet normal -0.713256 0.700904 0
    outer loop
      vertex 43.8812 -40.9199 5
      vertex 43.8812 -40.9199 0
      vertex 41.6795 -43.1604 0
    endloop
  endfacet
  facet normal 0 -0 1
    outer loop
      vertex 51.1948 -47.7399 5
      vertex 53.6231 -44.9951 5
      vertex 43.8812 -40.9199 5
    endloop
  endfacet
  facet normal 0 0 1
    outer loop
      vertex 53.6231 -44.9951 5
      vertex 45.9627 -38.5673 5
      vertex 43.8812 -40.9199 5
    endloop
  endfacet
  facet normal 0.748968 -0.662606 0
    outer loop
      vertex 51.1948 -47.7399 0
      vertex 53.6231 -44.9951 0
      vertex 51.1948 -47.7399 5
    endloop
  endfacet
  facet normal 0.748968 -0.662606 0
    outer loop
      vertex 53.6231 -44.9951 0
      vertex 53.6231 -44.9951 5
      vertex 51.1948 -47.7399 5
    endloop
  endfacet
  facet normal 0 0 -1
    outer loop
      vertex 43.8812 -40.9199 0
      vertex 45.9627 -38.5673 0
      vertex 51.1948 -47.7399 0
    endloop
  endfacet
  facet normal 0 0 -1
    outer loop
      vertex 45.9627 -38.5673 0
      vertex 53.6231 -44.9951 0
      vertex 51.1948 -47.7399 0
    endloop
  endfacet
  facet normal -0.748941 0.662637 0
    outer loop
      vertex 43.8812 -40.9199 5
      vertex 45.9627 -38.5673 5
      vertex 43.8812 -40.9199 0
    endloop
  endfacet
  facet normal -0.748941 0.662637 0
    outer loop
      vertex 45.9627 -38.5673 5
      vertex 45.9627 -38.5673 0
      vertex 43.8812 -40.9199 0
    endloop
  endfacet
  facet normal 0 -0 1
    outer loop
      vertex 53.6231 -44.9951 5
      vertex 55.9045 -42.1271 5
      vertex 45.9627 -38.5673 5
    endloop
  endfacet
  facet normal 0 0 1
    outer loop
      vertex 55.9045 -42.1271 5
      vertex 47.9181 -36.1089 5
      vertex 45.9627 -38.5673 5
    endloop
  endfacet
  facet normal 0.782596 -0.62253 0
    outer loop
      vertex 53.6231 -44.9951 0
      vertex 55.9045 -42.1271 0
      vertex 53.6231 -44.9951 5
    endloop
  endfacet
  facet normal 0.782596 -0.62253 0
    outer loop
      vertex 55.9045 -42.1271 0
      vertex 55.9045 -42.1271 5
      vertex 53.6231 -44.9951 5
    endloop
  endfacet
  facet normal 0 0 -1
    outer loop
      vertex 45.9627 -38.5673 0
      vertex 47.9181 -36.1089 0
      vertex 53.6231 -44.9951 0
    endloop
  endfacet
  facet normal 0 0 -1
    outer loop
      vertex 47.9181 -36.1089 0
      vertex 55.9045 -42.1271 0
      vertex 53.6231 -44.9951 0
    endloop
  endfacet
  facet normal -0.782624 0.622495 0
    outer loop
      vertex 45.9627 -38.5673 5
      vertex 47.9181 -36.1089 5
      vertex 45.9627 -38.5673 0
    endloop
  endfacet
  facet normal -0.782624 0.622495 0
    outer loop
      vertex 47.9181 -36.1089 5
      vertex 47.9181 -36.1089 0
      vertex 45.9627 -38.5673 0
    endloop
  endfacet
  facet normal 0 -0 1
    outer loop
      vertex 55.9045 -42.1271 5
      vertex 58.0326 -39.1435 5
      vertex 47.9181 -36.1089 5
    endloop
  endfacet
  facet normal 0 0 1
    outer loop
      vertex 58.0326 -39.1435 5
      vertex 49.7423 -33.5516 5
      vertex 47.9181 -36.1089 5
    endloop
  endfacet
  facet normal 0.814126 -0.580688 0
    outer loop
      vertex 55.9045 -42.1271 0
      vertex 58.0326 -39.1435 0
      vertex 55.9045 -42.1271 5
    endloop
  endfacet
  facet normal 0.814126 -0.580688 0
    outer loop
      vertex 58.0326 -39.1435 0
      vertex 58.0326 -39.1435 5
      vertex 55.9045 -42.1271 5
    endloop
  endfacet
  facet normal 0 0 -1
    outer loop
      vertex 47.9181 -36.1089 0
      vertex 49.7423 -33.5516 0
      vertex 55.9045 -42.1271 0
    endloop
  endfacet
  facet normal 0 0 -1
    outer loop
      vertex 49.7423 -33.5516 0
      vertex 58.0326 -39.1435 0
      vertex 55.9045 -42.1271 0
    endloop
  endfacet
  facet normal -0.814101 0.580723 0
    outer loop
      vertex 47.9181 -36.1089 5
      vertex 49.7423 -33.5516 5
      vertex 47.9181 -36.1089 0
    endloop
  endfacet
  facet normal -0.814101 0.580723 0
    outer loop
      vertex 49.7423 -33.5516 5
      vertex 49.7423 -33.5516 0
      vertex 47.9181 -36.1089 0
    endloop
  endfacet
  facet normal 0 -0 1
    outer loop
      vertex 58.0326 -39.1435 5
      vertex 60.0017 -36.0527 5
      vertex 49.7423 -33.5516 5
    endloop
  endfacet
  facet normal 0 0 1
    outer loop
      vertex 60.0017 -36.0527 5
      vertex 51.43 -30.9023 5
      vertex 49.7423 -33.5516 5
    endloop
  endfacet
  facet normal 0.843386 -0.537308 0
    outer loop
      vertex 58.0326 -39.1435 0
      vertex 60.0017 -36.0527 0
      vertex 58.0326 -39.1435 5
    endloop
  endfacet
  facet normal 0.843386 -0.537308 0
    outer loop
      vertex 60.0017 -36.0527 0
      vertex 60.0017 -36.0527 5
      vertex 58.0326 -39.1435 5
    endloop
  endfacet
  facet normal 0 0 -1
    outer loop
      vertex 49.7423 -33.5516 0
      vertex 51.43 -30.9023 0
      vertex 58.0326 -39.1435 0
    endloop
  endfacet
  facet normal 0 0 -1
    outer loop
      vertex 51.43 -30.9023 0
      vertex 60.0017 -36.0527 0
      vertex 58.0326 -39.1435 0
    endloop
  endfacet
  facet normal -0.843404 0.537279 0
    outer loop
      vertex 49.7423 -33.5516 5
      vertex 51.43 -30.9023 5
      vertex 49.7423 -33.5516 0
    endloop
  endfacet
  facet normal -0.843404 0.537279 0
    outer loop
      vertex 51.43 -30.9023 5
      vertex 51.43 -30.9023 0
      vertex 49.7423 -33.5516 0
    endloop
  endfacet
  facet normal 0 -0 1
    outer loop
      vertex 60.0017 -36.0527 5
      vertex 61.8063 -32.863 5
      vertex 51.43 -30.9023 5
    endloop
  endfacet
  facet normal 0 0 1
    outer loop
      vertex 61.8063 -32.863 5
      vertex 52.9769 -28.1683 5
      vertex 51.43 -30.9023 5
    endloop
  endfacet
  facet normal 0.870361 -0.492414 0
    outer loop
      vertex 60.0017 -36.0527 0
      vertex 61.8063 -32.863 0
      vertex 60.0017 -36.0527 5
    endloop
  endfacet
  facet normal 0.870361 -0.492414 0
    outer loop
      vertex 61.8063 -32.863 0
      vertex 61.8063 -32.863 5
      vertex 60.0017 -36.0527 5
    endloop
  endfacet
  facet normal 0 0 -1
    outer loop
      vertex 51.43 -30.9023 0
      vertex 52.9769 -28.1683 0
      vertex 60.0017 -36.0527 0
    endloop
  endfacet
  facet normal 0 0 -1
    outer loop
      vertex 52.9769 -28.1683 0
      vertex 61.8063 -32.863 0
      vertex 60.0017 -36.0527 0
    endloop
  endfacet
  facet normal -0.870345 0.492442 0
    outer loop
      vertex 51.43 -30.9023 5
      vertex 52.9769 -28.1683 5
      vertex 51.43 -30.9023 0
    endloop
  endfacet
  facet normal -0.870345 0.492442 0
    outer loop
      vertex 52.9769 -28.1683 5
      vertex 52.9769 -28.1683 0
      vertex 51.43 -30.9023 0
    endloop
  endfacet
  facet normal 0 -0 1
    outer loop
      vertex 61.8063 -32.863 5
      vertex 63.4415 -29.5833 5
      vertex 52.9769 -28.1683 5
    endloop
  endfacet
  facet normal 0 0 1
    outer loop
      vertex 63.4415 -29.5833 5
      vertex 54.3785 -25.3571 5
      vertex 52.9769 -28.1683 5
    endloop
  endfacet
  facet normal 0.894934 -0.446198 0
    outer loop
      vertex 61.8063 -32.863 0
      vertex 63.4415 -29.5833 0
      vertex 61.8063 -32.863 5
    endloop
  endfacet
  facet normal 0.894934 -0.446198 0
    outer loop
      vertex 63.4415 -29.5833 0
      vertex 63.4415 -29.5833 5
      vertex 61.8063 -32.863 5
    endloop
  endfacet
  facet normal 0 0 -1
    outer loop
      vertex 52.9769 -28.1683 0
      vertex 54.3785 -25.3571 0
      vertex 61.8063 -32.863 0
    endloop
  endfacet
  facet normal 0 0 -1
    outer loop
      vertex 54.3785 -25.3571 0
      vertex 63.4415 -29.5833 0
      vertex 61.8063 -32.863 0
    endloop
  endfacet
  facet normal -0.894936 0.446195 0
    outer loop
      vertex 52.9769 -28.1683 5
      vertex 54.3785 -25.3571 5
      vertex 52.9769 -28.1683 0
    endloop
  endfacet
  facet normal -0.894936 0.446195 0
    outer loop
      vertex 54.3785 -25.3571 5
      vertex 54.3785 -25.3571 0
      vertex 52.9769 -28.1683 0
    endloop
  endfacet
  facet normal 0 -0 1
    outer loop
      vertex 63.4415 -29.5833 5
      vertex 64.9029 -26.2225 5
      vertex 54.3785 -25.3571 5
    endloop
  endfacet
  facet normal 0 0 1
    outer loop
      vertex 64.9029 -26.2225 5
      vertex 55.631 -22.4764 5
      vertex 54.3785 -25.3571 5
    endloop
  endfacet
  facet normal 0.917052 -0.398768 0
    outer loop
      vertex 63.4415 -29.5833 0
      vertex 64.9029 -26.2225 0
      vertex 63.4415 -29.5833 5
    endloop
  endfacet
  facet normal 0.917052 -0.398768 0
    outer loop
      vertex 64.9029 -26.2225 0
      vertex 64.9029 -26.2225 5
      vertex 63.4415 -29.5833 5
    endloop
  endfacet
  facet normal 0 0 -1
    outer loop
      vertex 54.3785 -25.3571 0
      vertex 55.631 -22.4764 0
      vertex 63.4415 -29.5833 0
    endloop
  endfacet
  facet normal 0 0 -1
    outer loop
      vertex 55.631 -22.4764 0
      vertex 64.9029 -26.2225 0
      vertex 63.4415 -29.5833 0
    endloop
  endfacet
  facet normal -0.917068 0.398732 0
    outer loop
      vertex 54.3785 -25.3571 5
      vertex 55.631 -22.4764 5
      vertex 54.3785 -25.3571 0
    endloop
  endfacet
  facet normal -0.917068 0.398732 0
    outer loop
      vertex 55.631 -22.4764 5
      vertex 55.631 -22.4764 0
      vertex 54.3785 -25.3571 0
    endloop
  endfacet
  facet normal 0 -0 1
    outer loop
      vertex 64.9029 -26.2225 5
      vertex 66.1863 -22.7898 5
      vertex 55.631 -22.4764 5
    endloop
  endfacet
  facet normal 0 0 1
    outer loop
      vertex 66.1863 -22.7898 5
      vertex 56.7311 -19.5341 5
      vertex 55.631 -22.4764 5
    endloop
  endfacet
  facet normal 0.936675 -0.350199 0
    outer loop
      vertex 64.9029 -26.2225 0
      vertex 66.1863 -22.7898 0
      vertex 64.9029 -26.2225 5
    endloop
  endfacet
  facet normal 0.936675 -0.350199 0
    outer loop
      vertex 66.1863 -22.7898 0
      vertex 66.1863 -22.7898 5
      vertex 64.9029 -26.2225 5
    endloop
  endfacet
  facet normal 0 0 -1
    outer loop
      vertex 55.631 -22.4764 0
      vertex 56.7311 -19.5341 0
      vertex 64.9029 -26.2225 0
    endloop
  endfacet
  facet normal 0 0 -1
    outer loop
      vertex 56.7311 -19.5341 0
      vertex 66.1863 -22.7898 0
      vertex 64.9029 -26.2225 0
    endloop
  endfacet
  facet normal -0.93667 0.350213 0
    outer loop
      vertex 55.631 -22.4764 5
      vertex 56.7311 -19.5341 5
      vertex 55.631 -22.4764 0
    endloop
  endfacet
  facet normal -0.93667 0.350213 0
    outer loop
      vertex 56.7311 -19.5341 5
      vertex 56.7311 -19.5341 0
      vertex 55.631 -22.4764 0
    endloop
  endfacet
  facet normal 0 -0 1
    outer loop
      vertex 66.1863 -22.7898 5
      vertex 67.2883 -19.2946 5
      vertex 56.7311 -19.5341 5
    endloop
  endfacet
  facet normal 0 0 1
    outer loop
      vertex 67.2883 -19.2946 5
      vertex 57.6757 -16.5382 5
      vertex 56.7311 -19.5341 5
    endloop
  endfacet
  facet normal 0.953719 -0.300698 0
    outer loop
      vertex 66.1863 -22.7898 0
      vertex 67.2883 -19.2946 0
      vertex 66.1863 -22.7898 5
    endloop
  endfacet
  facet normal 0.953719 -0.300698 0
    outer loop
      vertex 67.2883 -19.2946 0
      vertex 67.2883 -19.2946 5
      vertex 66.1863 -22.7898 5
    endloop
  endfacet
  facet normal 0 0 -1
    outer loop
      vertex 56.7311 -19.5341 0
      vertex 57.6757 -16.5382 0
      vertex 66.1863 -22.7898 0
    endloop
  endfacet
  facet normal 0 0 -1
    outer loop
      vertex 57.6757 -16.5382 0
      vertex 67.2883 -19.2946 0
      vertex 66.1863 -22.7898 0
    endloop
  endfacet
  facet normal -0.953717 0.300705 0
    outer loop
      vertex 56.7311 -19.5341 5
      vertex 57.6757 -16.5382 5
      vertex 56.7311 -19.5341 0
    endloop
  endfacet
  facet normal -0.953717 0.300705 0
    outer loop
      vertex 57.6757 -16.5382 5
      vertex 57.6757 -16.5382 0
      vertex 56.7311 -19.5341 0
    endloop
  endfacet
  facet normal 0 -0 1
    outer loop
      vertex 67.2883 -19.2946 5
      vertex 68.2059 -15.7466 5
      vertex 57.6757 -16.5382 5
    endloop
  endfacet
  facet normal 0 0 1
    outer loop
      vertex 68.2059 -15.7466 5
      vertex 58.4622 -13.4971 5
      vertex 57.6757 -16.5382 5
    endloop
  endfacet
  facet normal 0.968146 -0.250386 0
    outer loop
      vertex 67.2883 -19.2946 0
      vertex 68.2059 -15.7466 0
      vertex 67.2883 -19.2946 5
    endloop
  endfacet
  facet normal 0.968146 -0.250386 0
    outer loop
      vertex 68.2059 -15.7466 0
      vertex 68.2059 -15.7466 5
      vertex 67.2883 -19.2946 5
    endloop
  endfacet
  facet normal 0 0 -1
    outer loop
      vertex 57.6757 -16.5382 0
      vertex 58.4622 -13.4971 0
      vertex 67.2883 -19.2946 0
    endloop
  endfacet
  facet normal 0 0 -1
    outer loop
      vertex 58.4622 -13.4971 0
      vertex 68.2059 -15.7466 0
      vertex 67.2883 -19.2946 0
    endloop
  endfacet
  facet normal -0.968146 0.250385 0
    outer loop
      vertex 57.6757 -16.5382 5
      vertex 58.4622 -13.4971 5
      vertex 57.6757 -16.5382 0
    endloop
  endfacet
  facet normal -0.968146 0.250385 0
    outer loop
      vertex 58.4622 -13.4971 5
      vertex 58.4622 -13.4971 0
      vertex 57.6757 -16.5382 0
    endloop
  endfacet
  facet normal 0 -0 1
    outer loop
      vertex 68.2059 -15.7466 5
      vertex 68.9365 -12.1554 5
      vertex 58.4622 -13.4971 5
    endloop
  endfacet
  facet normal 0 0 1
    outer loop
      vertex 68.9365 -12.1554 5
      vertex 59.0885 -10.4189 5
      vertex 58.4622 -13.4971 5
    endloop
  endfacet
  facet normal 0.979927 -0.199358 0
    outer loop
      vertex 68.2059 -15.7466 0
      vertex 68.9365 -12.1554 0
      vertex 68.2059 -15.7466 5
    endloop
  endfacet
  facet normal 0.979927 -0.199358 0
    outer loop
      vertex 68.9365 -12.1554 0
      vertex 68.9365 -12.1554 5
      vertex 68.2059 -15.7466 5
    endloop
  endfacet
  facet normal 0 0 -1
    outer loop
      vertex 58.4622 -13.4971 0
      vertex 59.0885 -10.4189 0
      vertex 68.2059 -15.7466 0
    endloop
  endfacet
  facet normal 0 0 -1
    outer loop
      vertex 59.0885 -10.4189 0
      vertex 68.9365 -12.1554 0
      vertex 68.2059 -15.7466 0
    endloop
  endfacet
  facet normal -0.979923 0.199378 0
    outer loop
      vertex 58.4622 -13.4971 5
      vertex 59.0885 -10.4189 5
      vertex 58.4622 -13.4971 0
    endloop
  endfacet
  facet normal -0.979923 0.199378 0
    outer loop
      vertex 59.0885 -10.4189 5
      vertex 59.0885 -10.4189 0
      vertex 58.4622 -13.4971 0
    endloop
  endfacet
  facet normal 0 -0 1
    outer loop
      vertex 68.9365 -12.1554 5
      vertex 69.4782 -8.53085 5
      vertex 59.0885 -10.4189 5
    endloop
  endfacet
  facet normal 0 0 1
    outer loop
      vertex 69.4782 -8.53085 5
      vertex 59.5528 -7.31216 5
      vertex 59.0885 -10.4189 5
    endloop
  endfacet
  facet normal 0.989016 -0.147811 0
    outer loop
      vertex 68.9365 -12.1554 0
      vertex 69.4782 -8.53085 0
      vertex 68.9365 -12.1554 5
    endloop
  endfacet
  facet normal 0.989016 -0.147811 0
    outer loop
      vertex 69.4782 -8.53085 0
      vertex 69.4782 -8.53085 5
      vertex 68.9365 -12.1554 5
    endloop
  endfacet
  facet normal 0 0 -1
    outer loop
      vertex 59.0885 -10.4189 0
      vertex 59.5528 -7.31216 0
      vertex 68.9365 -12.1554 0
    endloop
  endfacet
  facet normal 0 0 -1
    outer loop
      vertex 59.5528 -7.31216 0
      vertex 69.4782 -8.53085 0
      vertex 68.9365 -12.1554 0
    endloop
  endfacet
  facet normal -0.989016 0.147808 0
    outer loop
      vertex 59.0885 -10.4189 5
      vertex 59.5528 -7.31216 5
      vertex 59.0885 -10.4189 0
    endloop
  endfacet
  facet normal -0.989016 0.147808 0
    outer loop
      vertex 59.5528 -7.31216 5
      vertex 59.5528 -7.31216 0
      vertex 59.0885 -10.4189 0
    endloop
  endfacet
  facet normal 0 -0 1
    outer loop
      vertex 69.4782 -8.53085 5
      vertex 69.8295 -4.88295 5
      vertex 59.5528 -7.31216 5
    endloop
  endfacet
  facet normal 0 0 1
    outer loop
      vertex 69.8295 -4.88295 5
      vertex 59.8538 -4.18539 5
      vertex 59.5528 -7.31216 5
    endloop
  endfacet
  facet normal 0.995395 -0.0958585 0
    outer loop
      vertex 69.4782 -8.53085 0
      vertex 69.8295 -4.88295 0
      vertex 69.4782 -8.53085 5
    endloop
  endfacet
  facet normal 0.995395 -0.0958585 0
    outer loop
      vertex 69.8295 -4.88295 0
      vertex 69.8295 -4.88295 5
      vertex 69.4782 -8.53085 5
    endloop
  endfacet
  facet normal 0 0 -1
    outer loop
      vertex 59.5528 -7.31216 0
      vertex 59.8538 -4.18539 0
      vertex 69.4782 -8.53085 0
    endloop
  endfacet
  facet normal 0 0 -1
    outer loop
      vertex 59.8538 -4.18539 0
      vertex 69.8295 -4.88295 0
      vertex 69.4782 -8.53085 0
    endloop
  endfacet
  facet normal -0.995398 0.0958225 0
    outer loop
      vertex 59.5528 -7.31216 5
      vertex 59.8538 -4.18539 5
      vertex 59.5528 -7.31216 0
    endloop
  endfacet
  facet normal -0.995398 0.0958225 0
    outer loop
      vertex 59.8538 -4.18539 5
      vertex 59.8538 -4.18539 0
      vertex 59.5528 -7.31216 0
    endloop
  endfacet
  facet normal 0 -0 1
    outer loop
      vertex 69.8295 -4.88295 5
      vertex 69.9893 -1.22167 5
      vertex 59.8538 -4.18539 5
    endloop
  endfacet
  facet normal 0 0 1
    outer loop
      vertex 69.9893 -1.22167 5
      vertex 59.9909 -1.04714 5
      vertex 59.8538 -4.18539 5
    endloop
  endfacet
  facet normal 0.999049 -0.0436044 0
    outer loop
      vertex 69.8295 -4.88295 0
      vertex 69.9893 -1.22167 0
      vertex 69.8295 -4.88295 5
    endloop
  endfacet
  facet normal 0.999049 -0.0436044 0
    outer loop
      vertex 69.9893 -1.22167 0
      vertex 69.9893 -1.22167 5
      vertex 69.8295 -4.88295 5
    endloop
  endfacet
  facet normal 0 0 -1
    outer loop
      vertex 59.8538 -4.18539 0
      vertex 59.9909 -1.04714 0
      vertex 69.8295 -4.88295 0
    endloop
  endfacet
  facet normal 0 0 -1
    outer loop
      vertex 59.9909 -1.04714 0
      vertex 69.9893 -1.22167 0
      vertex 69.8295 -4.88295 0
    endloop
  endfacet
  facet normal -0.999047 0.0436451 0
    outer loop
      vertex 59.8538 -4.18539 5
      vertex 59.9909 -1.04714 5
      vertex 59.8538 -4.18539 0
    endloop
  endfacet
  facet normal -0.999047 0.0436451 0
    outer loop
      vertex 59.9909 -1.04714 5
      vertex 59.9909 -1.04714 0
      vertex 59.8538 -4.18539 0
    endloop
  endfacet
  facet normal 0 0 1
    outer loop
      vertex 69.9893 -1.22167 5
      vertex 69.9574 2.44296 5
      vertex 59.9909 -1.04714 5
    endloop
  endfacet
  facet normal 0 0 1
    outer loop
      vertex 69.9574 2.44296 5
      vertex 59.9635 2.09397 5
      vertex 59.9909 -1.04714 5
    endloop
  endfacet
  facet normal 0.999962 0.00870451 -0
    outer loop
      vertex 69.9893 -1.22167 0
      vertex 69.9574 2.44296 0
      vertex 69.9893 -1.22167 5
    endloop
  endfacet
  facet normal 0.999962 0.00870451 -0
    outer loop
      vertex 69.9574 2.44296 0
      vertex 69.9574 2.44296 5
      vertex 69.9893 -1.22167 5
    endloop
  endfacet
  facet normal 0 0 -1
    outer loop
      vertex 59.9909 -1.04714 0
      vertex 59.9635 2.09397 0
      vertex 69.9893 -1.22167 0
    endloop
  endfacet
  facet normal 0 0 -1
    outer loop
      vertex 59.9635 2.09397 0
      vertex 69.9574 2.44296 0
      vertex 69.9893 -1.22167 0
    endloop
  endfacet
  facet normal -0.999962 -0.0087227 -0
    outer loop
      vertex 59.9909 -1.04714 5
      vertex 59.9635 2.09397 5
      vertex 59.9909 -1.04714 0
    endloop
  endfacet
  facet normal -0.999962 -0.0087227 -0
    outer loop
      vertex 59.9635 2.09397 5
      vertex 59.9635 2.09397 0
      vertex 59.9909 -1.04714 0
    endloop
  endfacet
  facet normal 0 0 1
    outer loop
      vertex 69.9574 2.44296 5
      vertex 69.7336 6.1009 5
      vertex 59.9635 2.09397 5
    endloop
  endfacet
  facet normal 0 0 1
    outer loop
      vertex 69.7336 6.1009 5
      vertex 59.7717 5.22934 5
      vertex 59.9635 2.09397 5
    endloop
  endfacet
  facet normal 0.998134 0.0610678 -0
    outer loop
      vertex 69.9574 2.44296 0
      vertex 69.7336 6.1009 0
      vertex 69.9574 2.44296 5
    endloop
  endfacet
  facet normal 0.998134 0.0610678 -0
    outer loop
      vertex 69.7336 6.1009 0
      vertex 69.7336 6.1009 5
      vertex 69.9574 2.44296 5
    endloop
  endfacet
  facet normal 0 0 -1
    outer loop
      vertex 59.9635 2.09397 0
      vertex 59.7717 5.22934 0
      vertex 69.9574 2.44296 0
    endloop
  endfacet
  facet normal 0 0 -1
    outer loop
      vertex 59.7717 5.22934 0
      vertex 69.7336 6.1009 0
      vertex 69.9574 2.44296 0
    endloop
  endfacet
  facet normal -0.998134 -0.0610589 -0
    outer loop
      vertex 59.9635 2.09397 5
      vertex 59.7717 5.22934 5
      vertex 59.9635 2.09397 0
    endloop
  endfacet
  facet normal -0.998134 -0.0610589 -0
    outer loop
      vertex 59.7717 5.22934 5
      vertex 59.7717 5.22934 0
      vertex 59.9635 2.09397 0
    endloop
  endfacet
  facet normal 0 0 1
    outer loop
      vertex 69.7336 6.1009 5
      vertex 69.3188 9.74212 5
      vertex 59.7717 5.22934 5
    endloop
  endfacet
  facet normal 0 0 1
    outer loop
      vertex 69.3188 9.74212 5
      vertex 59.4161 8.35039 5
      vertex 59.7717 5.22934 5
    endloop
  endfacet
  facet normal 0.993574 0.113186 -0
    outer loop
      vertex 69.7336 6.1009 0
      vertex 69.3188 9.74212 0
      vertex 69.7336 6.1009 5
    endloop
  endfacet
  facet normal 0.993574 0.113186 -0
    outer loop
      vertex 69.3188 9.74212 0
      vertex 69.3188 9.74212 5
      vertex 69.7336 6.1009 5
    endloop
  endfacet
  facet normal 0 0 -1
    outer loop
      vertex 59.7717 5.22934 0
      vertex 59.4161 8.35039 0
      vertex 69.7336 6.1009 0
    endloop
  endfacet
  facet normal 0 0 -1
    outer loop
      vertex 59.4161 8.35039 0
      vertex 69.3188 9.74212 0
      vertex 69.7336 6.1009 0
    endloop
  endfacet
  facet normal -0.993572 -0.113204 -0
    outer loop
      vertex 59.7717 5.22934 5
      vertex 59.4161 8.35039 5
      vertex 59.7717 5.22934 0
    endloop
  endfacet
  facet normal -0.993572 -0.113204 -0
    outer loop
      vertex 59.4161 8.35039 5
      vertex 59.4161 8.35039 0
      vertex 59.7717 5.22934 0
    endloop
  endfacet
  facet normal 0 0 1
    outer loop
      vertex 69.3188 9.74212 5
      vertex 68.7139 13.3566 5
      vertex 59.4161 8.35039 5
    endloop
  endfacet
  facet normal 0 0 1
    outer loop
      vertex 68.7139 13.3566 5
      vertex 58.8976 11.4485 5
      vertex 59.4161 8.35039 5
    endloop
  endfacet
  facet normal 0.986284 0.165059 -0
    outer loop
      vertex 69.3188 9.74212 0
      vertex 68.7139 13.3566 0
      vertex 69.3188 9.74212 5
    endloop
  endfacet
  facet normal 0.986284 0.165059 -0
    outer loop
      vertex 68.7139 13.3566 0
      vertex 68.7139 13.3566 5
      vertex 69.3188 9.74212 5
    endloop
  endfacet
  facet normal 0 0 -1
    outer loop
      vertex 59.4161 8.35039 0
      vertex 58.8976 11.4485 0
      vertex 69.3188 9.74212 0
    endloop
  endfacet
  facet normal 0 0 -1
    outer loop
      vertex 58.8976 11.4485 0
      vertex 68.7139 13.3566 0
      vertex 69.3188 9.74212 0
    endloop
  endfacet
  facet normal -0.986283 -0.165064 -0
    outer loop
      vertex 59.4161 8.35039 5
      vertex 58.8976 11.4485 5
      vertex 59.4161 8.35039 0
    endloop
  endfacet
  facet normal -0.986283 -0.165064 -0
    outer loop
      vertex 58.8976 11.4485 5
      vertex 58.8976 11.4485 0
      vertex 59.4161 8.35039 0
    endloop
  endfacet
  facet normal 0 0 1
    outer loop
      vertex 68.7139 13.3566 5
      vertex 67.9207 16.9345 5
      vertex 58.8976 11.4485 5
    endloop
  endfacet
  facet normal 0 0 1
    outer loop
      vertex 67.9207 16.9345 5
      vertex 58.2177 14.5153 5
      vertex 58.8976 11.4485 5
    endloop
  endfacet
  facet normal 0.976296 0.216439 -0
    outer loop
      vertex 68.7139 13.3566 0
      vertex 67.9207 16.9345 0
      vertex 68.7139 13.3566 5
    endloop
  endfacet
  facet normal 0.976296 0.216439 -0
    outer loop
      vertex 67.9207 16.9345 0
      vertex 67.9207 16.9345 5
      vertex 68.7139 13.3566 5
    endloop
  endfacet
  facet normal 0 0 -1
    outer loop
      vertex 58.8976 11.4485 0
      vertex 58.2177 14.5153 0
      vertex 68.7139 13.3566 0
    endloop
  endfacet
  facet normal 0 0 -1
    outer loop
      vertex 58.2177 14.5153 0
      vertex 67.9207 16.9345 0
      vertex 68.7139 13.3566 0
    endloop
  endfacet
  facet normal -0.976296 -0.216442 -0
    outer loop
      vertex 58.8976 11.4485 5
      vertex 58.2177 14.5153 5
      vertex 58.8976 11.4485 0
    endloop
  endfacet
  facet normal -0.976296 -0.216442 -0
    outer loop
      vertex 58.2177 14.5153 5
      vertex 58.2177 14.5153 0
      vertex 58.8976 11.4485 0
    endloop
  endfacet
  facet normal 0 0 1
    outer loop
      vertex 67.9207 16.9345 5
      vertex 66.9413 20.466 5
      vertex 58.2177 14.5153 5
    endloop
  endfacet
  facet normal 0 0 1
    outer loop
      vertex 66.9413 20.466 5
      vertex 57.3783 17.5423 5
      vertex 58.2177 14.5153 5
    endloop
  endfacet
  facet normal 0.963628 0.267246 -0
    outer loop
      vertex 67.9207 16.9345 0
      vertex 66.9413 20.466 0
      vertex 67.9207 16.9345 5
    endloop
  endfacet
  facet normal 0.963628 0.267246 -0
    outer loop
      vertex 66.9413 20.466 0
      vertex 66.9413 20.466 5
      vertex 67.9207 16.9345 5
    endloop
  endfacet
  facet normal 0 0 -1
    outer loop
      vertex 58.2177 14.5153 0
      vertex 57.3783 17.5423 0
      vertex 67.9207 16.9345 0
    endloop
  endfacet
  facet normal 0 0 -1
    outer loop
      vertex 57.3783 17.5423 0
      vertex 66.9413 20.466 0
      vertex 67.9207 16.9345 0
    endloop
  endfacet
  facet normal -0.963635 -0.26722 -0
    outer loop
      vertex 58.2177 14.5153 5
      vertex 57.3783 17.5423 5
      vertex 58.2177 14.5153 0
    endloop
  endfacet
  facet normal -0.963635 -0.26722 -0
    outer loop
      vertex 57.3783 17.5423 5
      vertex 57.3783 17.5423 0
      vertex 58.2177 14.5153 0
    endloop
  endfacet
  facet normal 0 0 1
    outer loop
      vertex 66.9413 20.466 5
      vertex 65.7785 23.9414 5
      vertex 57.3783 17.5423 5
    endloop
  endfacet
  facet normal 0 0 1
    outer loop
      vertex 65.7785 23.9414 5
      vertex 56.3816 20.5212 5
      vertex 57.3783 17.5423 5
    endloop
  endfacet
  facet normal 0.948328 0.317292 -0
    outer loop
      vertex 66.9413 20.466 0
      vertex 65.7785 23.9414 0
      vertex 66.9413 20.466 5
    endloop
  endfacet
  facet normal 0.948328 0.317292 -0
    outer loop
      vertex 65.7785 23.9414 0
      vertex 65.7785 23.9414 5
      vertex 66.9413 20.466 5
    endloop
  endfacet
  facet normal 0 0 -1
    outer loop
      vertex 57.3783 17.5423 0
      vertex 56.3816 20.5212 0
      vertex 66.9413 20.466 0
    endloop
  endfacet
  facet normal 0 0 -1
    outer loop
      vertex 56.3816 20.5212 0
      vertex 65.7785 23.9414 0
      vertex 66.9413 20.466 0
    endloop
  endfacet
  facet normal -0.948326 -0.317297 -0
    outer loop
      vertex 57.3783 17.5423 5
      vertex 56.3816 20.5212 5
      vertex 57.3783 17.5423 0
    endloop
  endfacet
  facet normal -0.948326 -0.317297 -0
    outer loop
      vertex 56.3816 20.5212 5
      vertex 56.3816 20.5212 0
      vertex 57.3783 17.5423 0
    endloop
  endfacet
  facet normal 0 0 1
    outer loop
      vertex 65.7785 23.9414 5
      vertex 64.4353 27.3512 5
      vertex 56.3816 20.5212 5
    endloop
  endfacet
  facet normal 0 0 1
    outer loop
      vertex 64.4353 27.3512 5
      vertex 55.2303 23.4439 5
      vertex 56.3816 20.5212 5
    endloop
  endfacet
  facet normal 0.930413 0.366512 -0
    outer loop
      vertex 65.7785 23.9414 0
      vertex 64.4353 27.3512 0
      vertex 65.7785 23.9414 5
    endloop
  endfacet
  facet normal 0.930413 0.366512 -0
    outer loop
      vertex 64.4353 27.3512 0
      vertex 64.4353 27.3512 5
      vertex 65.7785 23.9414 5
    endloop
  endfacet
  facet normal 0 0 -1
    outer loop
      vertex 56.3816 20.5212 0
      vertex 55.2303 23.4439 0
      vertex 65.7785 23.9414 0
    endloop
  endfacet
  facet normal 0 0 -1
    outer loop
      vertex 55.2303 23.4439 0
      vertex 64.4353 27.3512 0
      vertex 65.7785 23.9414 0
    endloop
  endfacet
  facet normal -0.930416 -0.366506 -0
    outer loop
      vertex 56.3816 20.5212 5
      vertex 55.2303 23.4439 5
      vertex 56.3816 20.5212 0
    endloop
  endfacet
  facet normal -0.930416 -0.366506 -0
    outer loop
      vertex 55.2303 23.4439 5
      vertex 55.2303 23.4439 0
      vertex 56.3816 20.5212 0
    endloop
  endfacet
  facet normal 0 0 1
    outer loop
      vertex 64.4353 27.3512 5
      vertex 62.9156 30.686 5
      vertex 55.2303 23.4439 5
    endloop
  endfacet
  facet normal 0 0 1
    outer loop
      vertex 62.9156 30.686 5
      vertex 53.9276 26.3023 5
      vertex 55.2303 23.4439 5
    endloop
  endfacet
  facet normal 0.909967 0.414681 -0
    outer loop
      vertex 64.4353 27.3512 0
      vertex 62.9156 30.686 0
      vertex 64.4353 27.3512 5
    endloop
  endfacet
  facet normal 0.909967 0.414681 -0
    outer loop
      vertex 62.9156 30.686 0
      vertex 62.9156 30.686 5
      vertex 64.4353 27.3512 5
    endloop
  endfacet
  facet normal 0 0 -1
    outer loop
      vertex 55.2303 23.4439 0
      vertex 53.9276 26.3023 0
      vertex 64.4353 27.3512 0
    endloop
  endfacet
  facet normal 0 0 -1
    outer loop
      vertex 53.9276 26.3023 0
      vertex 62.9156 30.686 0
      vertex 64.4353 27.3512 0
    endloop
  endfacet
  facet normal -0.909955 -0.414707 -0
    outer loop
      vertex 55.2303 23.4439 5
      vertex 53.9276 26.3023 5
      vertex 55.2303 23.4439 0
    endloop
  endfacet
  facet normal -0.909955 -0.414707 -0
    outer loop
      vertex 53.9276 26.3023 5
      vertex 53.9276 26.3023 0
      vertex 55.2303 23.4439 0
    endloop
  endfacet
  facet normal 0 0 1
    outer loop
      vertex 62.9156 30.686 5
      vertex 61.2234 33.9367 5
      vertex 53.9276 26.3023 5
    endloop
  endfacet
  facet normal 0 0 1
    outer loop
      vertex 61.2234 33.9367 5
      vertex 52.4772 29.0886 5
      vertex 53.9276 26.3023 5
    endloop
  endfacet
  facet normal 0.887012 0.461747 -0
    outer loop
      vertex 62.9156 30.686 0
      vertex 61.2234 33.9367 0
      vertex 62.9156 30.686 5
    endloop
  endfacet
  facet normal 0.887012 0.461747 -0
    outer loop
      vertex 61.2234 33.9367 0
      vertex 61.2234 33.9367 5
      vertex 62.9156 30.686 5
    endloop
  endfacet
  facet normal 0 0 -1
    outer loop
      vertex 53.9276 26.3023 0
      vertex 52.4772 29.0886 0
      vertex 62.9156 30.686 0
    endloop
  endfacet
  facet normal 0 0 -1
    outer loop
      vertex 52.4772 29.0886 0
      vertex 61.2234 33.9367 0
      vertex 62.9156 30.686 0
    endloop
  endfacet
  facet normal -0.887018 -0.461735 -0
    outer loop
      vertex 53.9276 26.3023 5
      vertex 52.4772 29.0886 5
      vertex 53.9276 26.3023 0
    endloop
  endfacet
  facet normal -0.887018 -0.461735 -0
    outer loop
      vertex 52.4772 29.0886 5
      vertex 52.4772 29.0886 0
      vertex 53.9276 26.3023 0
    endloop
  endfacet
  facet normal 0 0 1
    outer loop
      vertex 61.2234 33.9367 5
      vertex 59.3634 37.0943 5
      vertex 52.4772 29.0886 5
    endloop
  endfacet
  facet normal 0 0 1
    outer loop
      vertex 59.3634 37.0943 5
      vertex 50.8829 31.7952 5
      vertex 52.4772 29.0886 5
    endloop
  endfacet
  facet normal 0.861625 0.507545 -0
    outer loop
      vertex 61.2234 33.9367 0
      vertex 59.3634 37.0943 0
      vertex 61.2234 33.9367 5
    endloop
  endfacet
  facet normal 0.861625 0.507545 -0
    outer loop
      vertex 59.3634 37.0943 0
      vertex 59.3634 37.0943 5
      vertex 61.2234 33.9367 5
    endloop
  endfacet
  facet normal 0 0 -1
    outer loop
      vertex 52.4772 29.0886 0
      vertex 50.8829 31.7952 0
      vertex 61.2234 33.9367 0
    endloop
  endfacet
  facet normal 0 0 -1
    outer loop
      vertex 50.8829 31.7952 0
      vertex 59.3634 37.0943 0
      vertex 61.2234 33.9367 0
    endloop
  endfacet
  facet normal -0.86163 -0.507536 -0
    outer loop
      vertex 52.4772 29.0886 5
      vertex 50.8829 31.7952 5
      vertex 52.4772 29.0886 0
    endloop
  endfacet
  facet normal -0.86163 -0.507536 -0
    outer loop
      vertex 50.8829 31.7952 5
      vertex 50.8829 31.7952 0
      vertex 52.4772 29.0886 0
    endloop
  endfacet
  facet normal 0 0 1
    outer loop
      vertex 59.3634 37.0943 5
      vertex 57.3406 40.1503 5
      vertex 50.8829 31.7952 5
    endloop
  endfacet
  facet normal 0 0 1
    outer loop
      vertex 57.3406 40.1503 5
      vertex 49.1491 34.4146 5
      vertex 50.8829 31.7952 5
    endloop
  endfacet
  facet normal 0.833876 0.551952 -0
    outer loop
      vertex 59.3634 37.0943 0
      vertex 57.3406 40.1503 0
      vertex 59.3634 37.0943 5
    endloop
  endfacet
  facet normal 0.833876 0.551952 -0
    outer loop
      vertex 57.3406 40.1503 0
      vertex 57.3406 40.1503 5
      vertex 59.3634 37.0943 5
    endloop
  endfacet
  facet normal 0 0 -1
    outer loop
      vertex 50.8829 31.7952 0
      vertex 49.1491 34.4146 0
      vertex 59.3634 37.0943 0
    endloop
  endfacet
  facet normal 0 0 -1
    outer loop
      vertex 49.1491 34.4146 0
      vertex 57.3406 40.1503 0
      vertex 59.3634 37.0943 0
    endloop
  endfacet
  facet normal -0.833877 -0.55195 -0
    outer loop
      vertex 50.8829 31.7952 5
      vertex 49.1491 34.4146 5
      vertex 50.8829 31.7952 0
    endloop
  endfacet
  facet normal -0.833877 -0.55195 -0
    outer loop
      vertex 49.1491 34.4146 5
      vertex 49.1491 34.4146 0
      vertex 50.8829 31.7952 0
    endloop
  endfacet
  facet normal 0 0 1
    outer loop
      vertex 57.3406 40.1503 5
      vertex 55.1608 43.0963 5
      vertex 49.1491 34.4146 5
    endloop
  endfacet
  facet normal 0 0 1
    outer loop
      vertex 55.1608 43.0963 5
      vertex 47.2806 36.9397 5
      vertex 49.1491 34.4146 5
    endloop
  endfacet
  facet normal 0.803873 0.594801 -0
    outer loop
      vertex 57.3406 40.1503 0
      vertex 55.1608 43.0963 0
      vertex 57.3406 40.1503 5
    endloop
  endfacet
  facet normal 0.803873 0.594801 -0
    outer loop
      vertex 55.1608 43.0963 0
      vertex 55.1608 43.0963 5
      vertex 57.3406 40.1503 5
    endloop
  endfacet
  facet normal 0 0 -1
    outer loop
      vertex 49.1491 34.4146 0
      vertex 47.2806 36.9397 0
      vertex 57.3406 40.1503 0
    endloop
  endfacet
  facet normal 0 0 -1
    outer loop
      vertex 47.2806 36.9397 0
      vertex 55.1608 43.0963 0
      vertex 57.3406 40.1503 0
    endloop
  endfacet
  facet normal -0.803853 -0.594828 -0
    outer loop
      vertex 49.1491 34.4146 5
      vertex 47.2806 36.9397 5
      vertex 49.1491 34.4146 0
    endloop
  endfacet
  facet normal -0.803853 -0.594828 -0
    outer loop
      vertex 47.2806 36.9397 5
      vertex 47.2806 36.9397 0
      vertex 49.1491 34.4146 0
    endloop
  endfacet
  facet normal 0 0 1
    outer loop
      vertex 55.1608 43.0963 5
      vertex 52.8297 45.9241 5
      vertex 47.2806 36.9397 5
    endloop
  endfacet
  facet normal 0 0 1
    outer loop
      vertex 52.8297 45.9241 5
      vertex 45.2826 39.3635 5
      vertex 47.2806 36.9397 5
    endloop
  endfacet
  facet normal 0.771619 0.636085 -0
    outer loop
      vertex 55.1608 43.0963 0
      vertex 52.8297 45.9241 0
      vertex 55.1608 43.0963 5
    endloop
  endfacet
  facet normal 0.771619 0.636085 -0
    outer loop
      vertex 52.8297 45.9241 0
      vertex 52.8297 45.9241 5
      vertex 55.1608 43.0963 5
    endloop
  endfacet
  facet normal 0 0 -1
    outer loop
      vertex 47.2806 36.9397 0
      vertex 45.2826 39.3635 0
      vertex 55.1608 43.0963 0
    endloop
  endfacet
  facet normal 0 0 -1
    outer loop
      vertex 45.2826 39.3635 0
      vertex 52.8297 45.9241 0
      vertex 55.1608 43.0963 0
    endloop
  endfacet
  facet normal -0.771629 -0.636073 -0
    outer loop
      vertex 47.2806 36.9397 5
      vertex 45.2826 39.3635 5
      vertex 47.2806 36.9397 0
    endloop
  endfacet
  facet normal -0.771629 -0.636073 -0
    outer loop
      vertex 45.2826 39.3635 5
      vertex 45.2826 39.3635 0
      vertex 47.2806 36.9397 0
    endloop
  endfacet
  facet normal 0 0 1
    outer loop
      vertex 52.8297 45.9241 5
      vertex 50.3538 48.6261 5
      vertex 45.2826 39.3635 5
    endloop
  endfacet
  facet normal 0 0 1
    outer loop
      vertex 50.3538 48.6261 5
      vertex 43.1604 41.6795 5
      vertex 45.2826 39.3635 5
    endloop
  endfacet
  facet normal 0.737281 0.675586 -0
    outer loop
      vertex 52.8297 45.9241 0
      vertex 50.3538 48.6261 0
      vertex 52.8297 45.9241 5
    endloop
  endfacet
  facet normal 0.737281 0.675586 -0
    outer loop
      vertex 50.3538 48.6261 0
      vertex 50.3538 48.6261 5
      vertex 52.8297 45.9241 5
    endloop
  endfacet
  facet normal 0 0 -1
    outer loop
      vertex 45.2826 39.3635 0
      vertex 43.1604 41.6795 0
      vertex 52.8297 45.9241 0
    endloop
  endfacet
  facet normal 0 0 -1
    outer loop
      vertex 43.1604 41.6795 0
      vertex 50.3538 48.6261 0
      vertex 52.8297 45.9241 0
    endloop
  endfacet
  facet normal -0.737281 -0.675586 -0
    outer loop
      vertex 45.2826 39.3635 5
      vertex 43.1604 41.6795 5
      vertex 45.2826 39.3635 0
    endloop
  endfacet
  facet normal -0.737281 -0.675586 -0
    outer loop
      vertex 43.1604 41.6795 5
      vertex 43.1604 41.6795 0
      vertex 45.2826 39.3635 0
    endloop
  endfacet
  facet normal 0 0 1
    outer loop
      vertex 50.3538 48.6261 5
      vertex 47.7399 51.1948 5
      vertex 43.1604 41.6795 5
    endloop
  endfacet
  facet normal 0 0 1
    outer loop
      vertex 47.7399 51.1948 5
      vertex 40.9199 43.8812 5
      vertex 43.1604 41.6795 5
    endloop
  endfacet
  facet normal 0.700913 0.713247 -0
    outer loop
      vertex 50.3538 48.6261 0
      vertex 47.7399 51.1948 0
      vertex 50.3538 48.6261 5
    endloop
  endfacet
  facet normal 0.700913 0.713247 -0
    outer loop
      vertex 47.7399 51.1948 0
      vertex 47.7399 51.1948 5
      vertex 50.3538 48.6261 5
    endloop
  endfacet
  facet normal 0 0 -1
    outer loop
      vertex 43.1604 41.6795 0
      vertex 40.9199 43.8812 0
      vertex 50.3538 48.6261 0
    endloop
  endfacet
  facet normal 0 0 -1
    outer loop
      vertex 40.9199 43.8812 0
      vertex 47.7399 51.1948 0
      vertex 50.3538 48.6261 0
    endloop
  endfacet
  facet normal -0.700904 -0.713256 -0
    outer loop
      vertex 43.1604 41.6795 5
      vertex 40.9199 43.8812 5
      vertex 43.1604 41.6795 0
    endloop
  endfacet
  facet normal -0.700904 -0.713256 -0
    outer loop
      vertex 40.9199 43.8812 5
      vertex 40.9199 43.8812 0
      vertex 43.1604 41.6795 0
    endloop
  endfacet
  facet normal 0 0 1
    outer loop
      vertex 47.7399 51.1948 5
      vertex 44.9951 53.6231 5
      vertex 40.9199 43.8812 5
    endloop
  endfacet
  facet normal 0 0 1
    outer loop
      vertex 44.9951 53.6231 5
      vertex 38.5673 45.9627 5
      vertex 40.9199 43.8812 5
    endloop
  endfacet
  facet normal 0.662606 0.748968 -0
    outer loop
      vertex 47.7399 51.1948 0
      vertex 44.9951 53.6231 0
      vertex 47.7399 51.1948 5
    endloop
  endfacet
  facet normal 0.662606 0.748968 -0
    outer loop
      vertex 44.9951 53.6231 0
      vertex 44.9951 53.6231 5
      vertex 47.7399 51.1948 5
    endloop
  endfacet
  facet normal 0 0 -1
    outer loop
      vertex 40.9199 43.8812 0
      vertex 38.5673 45.9627 0
      vertex 47.7399 51.1948 0
    endloop
  endfacet
  facet normal 0 0 -1
    outer loop
      vertex 38.5673 45.9627 0
      vertex 44.9951 53.6231 0
      vertex 47.7399 51.1948 0
    endloop
  endfacet
  facet normal -0.662637 -0.748941 -0
    outer loop
      vertex 40.9199 43.8812 5
      vertex 38.5673 45.9627 5
      vertex 40.9199 43.8812 0
    endloop
  endfacet
  facet normal -0.662637 -0.748941 -0
    outer loop
      vertex 38.5673 45.9627 5
      vertex 38.5673 45.9627 0
      vertex 40.9199 43.8812 0
    endloop
  endfacet
  facet normal 0 0 1
    outer loop
      vertex 44.9951 53.6231 5
      vertex 42.1271 55.9045 5
      vertex 38.5673 45.9627 5
    endloop
  endfacet
  facet normal 0 0 1
    outer loop
      vertex 42.1271 55.9045 5
      vertex 36.1089 47.9181 5
      vertex 38.5673 45.9627 5
    endloop
  endfacet
  facet normal 0.62253 0.782596 -0
    outer loop
      vertex 44.9951 53.6231 0
      vertex 42.1271 55.9045 0
      vertex 44.9951 53.6231 5
    endloop
  endfacet
  facet normal 0.62253 0.782596 -0
    outer loop
      vertex 42.1271 55.9045 0
      vertex 42.1271 55.9045 5
      vertex 44.9951 53.6231 5
    endloop
  endfacet
  facet normal 0 0 -1
    outer loop
      vertex 38.5673 45.9627 0
      vertex 36.1089 47.9181 0
      vertex 44.9951 53.6231 0
    endloop
  endfacet
  facet normal 0 0 -1
    outer loop
      vertex 36.1089 47.9181 0
      vertex 42.1271 55.9045 0
      vertex 44.9951 53.6231 0
    endloop
  endfacet
  facet normal -0.622495 -0.782624 -0
    outer loop
      vertex 38.5673 45.9627 5
      vertex 36.1089 47.9181 5
      vertex 38.5673 45.9627 0
    endloop
  endfacet
  facet normal -0.622495 -0.782624 -0
    outer loop
      vertex 36.1089 47.9181 5
      vertex 36.1089 47.9181 0
      vertex 38.5673 45.9627 0
    endloop
  endfacet
  facet normal 0 0 1
    outer loop
      vertex 42.1271 55.9045 5
      vertex 39.1435 58.0326 5
      vertex 36.1089 47.9181 5
    endloop
  endfacet
  facet normal 0 0 1
    outer loop
      vertex 39.1435 58.0326 5
      vertex 33.5516 49.7423 5
      vertex 36.1089 47.9181 5
    endloop
  endfacet
  facet normal 0.580688 0.814126 -0
    outer loop
      vertex 42.1271 55.9045 0
      vertex 39.1435 58.0326 0
      vertex 42.1271 55.9045 5
    endloop
  endfacet
  facet normal 0.580688 0.814126 -0
    outer loop
      vertex 39.1435 58.0326 0
      vertex 39.1435 58.0326 5
      vertex 42.1271 55.9045 5
    endloop
  endfacet
  facet normal 0 0 -1
    outer loop
      vertex 36.1089 47.9181 0
      vertex 33.5516 49.7423 0
      vertex 42.1271 55.9045 0
    endloop
  endfacet
  facet normal 0 0 -1
    outer loop
      vertex 33.5516 49.7423 0
      vertex 39.1435 58.0326 0
      vertex 42.1271 55.9045 0
    endloop
  endfacet
  facet normal -0.580723 -0.814101 -0
    outer loop
      vertex 36.1089 47.9181 5
      vertex 33.5516 49.7423 5
      vertex 36.1089 47.9181 0
    endloop
  endfacet
  facet normal -0.580723 -0.814101 -0
    outer loop
      vertex 33.5516 49.7423 5
      vertex 33.5516 49.7423 0
      vertex 36.1089 47.9181 0
    endloop
  endfacet
  facet normal 0 0 1
    outer loop
      vertex 39.1435 58.0326 5
      vertex 36.0527 60.0017 5
      vertex 33.5516 49.7423 5
    endloop
  endfacet
  facet normal 0 0 1
    outer loop
      vertex 36.0527 60.0017 5
      vertex 30.9023 51.43 5
      vertex 33.5516 49.7423 5
    endloop
  endfacet
  facet normal 0.537308 0.843386 -0
    outer loop
      vertex 39.1435 58.0326 0
      vertex 36.0527 60.0017 0
      vertex 39.1435 58.0326 5
    endloop
  endfacet
  facet normal 0.537308 0.843386 -0
    outer loop
      vertex 36.0527 60.0017 0
      vertex 36.0527 60.0017 5
      vertex 39.1435 58.0326 5
    endloop
  endfacet
  facet normal 0 0 -1
    outer loop
      vertex 33.5516 49.7423 0
      vertex 30.9023 51.43 0
      vertex 39.1435 58.0326 0
    endloop
  endfacet
  facet normal 0 0 -1
    outer loop
      vertex 30.9023 51.43 0
      vertex 36.0527 60.0017 0
      vertex 39.1435 58.0326 0
    endloop
  endfacet
  facet normal -0.537279 -0.843404 -0
    outer loop
      vertex 33.5516 49.7423 5
      vertex 30.9023 51.43 5
      vertex 33.5516 49.7423 0
    endloop
  endfacet
  facet normal -0.537279 -0.843404 -0
    outer loop
      vertex 30.9023 51.43 5
      vertex 30.9023 51.43 0
      vertex 33.5516 49.7423 0
    endloop
  endfacet
  facet normal 0 0 1
    outer loop
      vertex 36.0527 60.0017 5
      vertex 32.863 61.8063 5
      vertex 30.9023 51.43 5
    endloop
  endfacet
  facet normal 0 0 1
    outer loop
      vertex 32.863 61.8063 5
      vertex 28.1683 52.9769 5
      vertex 30.9023 51.43 5
    endloop
  endfacet
  facet normal 0.492414 0.870361 -0
    outer loop
      vertex 36.0527 60.0017 0
      vertex 32.863 61.8063 0
      vertex 36.0527 60.0017 5
    endloop
  endfacet
  facet normal 0.492414 0.870361 -0
    outer loop
      vertex 32.863 61.8063 0
      vertex 32.863 61.8063 5
      vertex 36.0527 60.0017 5
    endloop
  endfacet
  facet normal 0 0 -1
    outer loop
      vertex 30.9023 51.43 0
      vertex 28.1683 52.9769 0
      vertex 36.0527 60.0017 0
    endloop
  endfacet
  facet normal 0 0 -1
    outer loop
      vertex 28.1683 52.9769 0
      vertex 32.863 61.8063 0
      vertex 36.0527 60.0017 0
    endloop
  endfacet
  facet normal -0.492442 -0.870345 -0
    outer loop
      vertex 30.9023 51.43 5
      vertex 28.1683 52.9769 5
      vertex 30.9023 51.43 0
    endloop
  endfacet
  facet normal -0.492442 -0.870345 -0
    outer loop
      vertex 28.1683 52.9769 5
      vertex 28.1683 52.9769 0
      vertex 30.9023 51.43 0
    endloop
  endfacet
  facet normal 0 0 1
    outer loop
      vertex 32.863 61.8063 5
      vertex 29.5833 63.4415 5
      vertex 28.1683 52.9769 5
    endloop
  endfacet
  facet normal 0 0 1
    outer loop
      vertex 29.5833 63.4415 5
      vertex 25.3571 54.3785 5
      vertex 28.1683 52.9769 5
    endloop
  endfacet
  facet normal 0.446198 0.894934 -0
    outer loop
      vertex 32.863 61.8063 0
      vertex 29.5833 63.4415 0
      vertex 32.863 61.8063 5
    endloop
  endfacet
  facet normal 0.446198 0.894934 -0
    outer loop
      vertex 29.5833 63.4415 0
      vertex 29.5833 63.4415 5
      vertex 32.863 61.8063 5
    endloop
  endfacet
  facet normal 0 0 -1
    outer loop
      vertex 28.1683 52.9769 0
      vertex 25.3571 54.3785 0
      vertex 32.863 61.8063 0
    endloop
  endfacet
  facet normal 0 0 -1
    outer loop
      vertex 25.3571 54.3785 0
      vertex 29.5833 63.4415 0
      vertex 32.863 61.8063 0
    endloop
  endfacet
  facet normal -0.446195 -0.894936 -0
    outer loop
      vertex 28.1683 52.9769 5
      vertex 25.3571 54.3785 5
      vertex 28.1683 52.9769 0
    endloop
  endfacet
  facet normal -0.446195 -0.894936 -0
    outer loop
      vertex 25.3571 54.3785 5
      vertex 25.3571 54.3785 0
      vertex 28.1683 52.9769 0
    endloop
  endfacet
endsolid OpenSCAD_Model
